<svg width="30" height="30" viewBox="0 0 30 30" fill="none" xmlns="http://www.w3.org/2000/svg">
<g clip-path="url(#clip0_31_71)">
<path d="M20.1793 26.2997H15.4509C15.4509 27.2829 15.4509 28.2429 15.4509 29.2031C15.4509 29.5486 15.5008 29.9353 15.0171 30.0014C14.6943 30.0457 14.5503 29.7806 14.55 29.2C14.5498 28.2504 14.55 27.3011 14.55 26.3137H9.82109C9.82109 26.4403 9.82109 26.5844 9.82109 26.7284C9.82109 27.5822 9.81997 28.4362 9.82165 29.29C9.82221 29.6234 9.80007 29.9527 9.37585 30.0022C9.06174 30.039 8.91492 29.7955 8.9138 29.2791C8.91184 28.439 8.91324 27.599 8.91324 26.7589C8.91324 26.6115 8.91324 26.4639 8.91324 26.2669C7.41052 26.3344 5.98794 26.2817 4.86153 25.1696C3.72868 24.0513 3.67236 22.6299 3.74381 21.1297C3.567 21.1182 3.42298 21.1008 3.27896 21.1005C2.39772 21.0977 1.51649 21.1028 0.635259 21.0972C0.197585 21.0944 -0.0268558 20.9274 0.00256526 20.6248C0.0392716 20.2501 0.307984 20.1801 0.627413 20.1809C1.64398 20.1843 2.66055 20.182 3.70458 20.182V15.4587C3.07357 15.4587 2.45825 15.4587 1.84293 15.4587C1.40217 15.4587 0.961133 15.4699 0.521217 15.4528C0.237934 15.4416 -0.00808238 15.3259 0.00452667 14.9902C0.0165753 14.6671 0.235412 14.5506 0.53943 14.5514C1.43439 14.5539 2.32935 14.552 3.2246 14.5517C3.37366 14.5517 3.52273 14.5517 3.7015 14.5517V9.82861C2.77543 9.82861 1.85722 9.82861 0.939277 9.82861C0.801698 9.82861 0.663279 9.83646 0.526261 9.82581C0.236253 9.8034 0.00480687 9.68459 0.00508707 9.359C0.00508707 9.0292 0.229808 8.91376 0.530744 8.91348C1.41198 8.91236 2.29321 8.91208 3.17444 8.91152C3.33752 8.91152 3.50059 8.91152 3.73232 8.91152C3.73232 8.4702 3.7242 8.06447 3.73372 7.65902C3.76959 6.12099 4.41349 4.93238 5.77583 4.17444C6.35332 3.85333 6.99162 3.75133 7.64421 3.73648C8.04237 3.72724 8.44082 3.7348 8.8883 3.7348C8.89755 3.5664 8.91184 3.42154 8.91212 3.27667C8.91436 2.39516 8.91296 1.51393 8.91408 0.632418C8.91436 0.325878 8.95022 0.0336281 9.34391 0.00308617C9.6454 -0.0201705 9.81717 0.208474 9.81941 0.638862C9.82445 1.65459 9.82109 2.67032 9.82109 3.71015H14.55C14.55 2.99087 14.55 2.29261 14.55 1.59435C14.55 1.27772 14.5475 0.960813 14.5509 0.644186C14.5554 0.209034 14.7148 -0.0235329 15.0115 0.00252577C15.392 0.0358697 15.452 0.314109 15.4512 0.628495C15.4495 1.26203 15.4509 1.89556 15.4509 2.5291C15.4509 2.91213 15.4509 3.29517 15.4509 3.70622H20.1793C20.1793 2.83676 20.1793 1.97402 20.1793 1.11128C20.1793 0.918503 20.1695 0.724884 20.1829 0.532946C20.2025 0.248822 20.3028 0.00364657 20.6377 0.00476737C20.972 0.00588818 21.081 0.240136 21.0824 0.533787C21.0868 1.44276 21.0849 2.35173 21.0854 3.2607C21.0854 3.39632 21.0854 3.53222 21.0854 3.73508C21.5256 3.73508 21.9317 3.72836 22.3374 3.7362C23.9317 3.76731 25.1699 4.4325 25.8533 5.89627C26.1066 6.43874 26.1661 7.08096 26.2585 7.6862C26.316 8.06195 26.2692 8.45367 26.2692 8.88546C26.4384 8.89498 26.5836 8.91012 26.7284 8.9104C27.6234 8.91292 28.5183 8.9132 29.4136 8.9118C29.7193 8.91124 29.9877 8.98857 29.9919 9.34695C29.9964 9.72018 29.7229 9.82609 29.4021 9.82749C28.5209 9.83142 27.6396 9.82889 26.7584 9.82917C26.6107 9.82917 26.4628 9.82917 26.2924 9.82917V14.5326C26.4364 14.5391 26.5816 14.5514 26.7267 14.5517C27.6217 14.5536 28.5167 14.5562 29.4119 14.5508C29.724 14.5489 29.9818 14.636 29.9925 14.9854C30.0042 15.3687 29.7134 15.4556 29.4007 15.4573C28.3827 15.4629 27.3645 15.4593 26.3078 15.4593V20.1829C26.493 20.1829 26.6931 20.1829 26.8935 20.1829C27.7058 20.1829 28.5183 20.1862 29.3306 20.1812C29.6599 20.1792 29.9547 20.2266 29.997 20.6267C30.0295 20.9355 29.7927 21.0966 29.3208 21.0986C28.4671 21.1025 27.6133 21.1 26.7598 21.1C26.6121 21.1 26.4642 21.1 26.2636 21.1C26.3227 22.6103 26.2767 24.0491 25.1341 25.1741C24.0065 26.2843 22.5834 26.3327 21.0857 26.27C21.0857 26.9926 21.0857 27.6634 21.0857 28.3342C21.0857 28.706 21.0843 29.0779 21.0849 29.4497C21.0854 29.745 20.9846 29.9871 20.659 29.9986C20.3093 30.0112 20.1846 29.7599 20.1824 29.4514C20.1756 28.5561 20.1796 27.6612 20.1793 26.7659C20.1793 26.618 20.1793 26.4703 20.1793 26.3005V26.2997ZM25.363 15.0067C25.363 12.597 25.3666 10.1876 25.3619 7.77782C25.3582 5.88675 24.2021 4.66647 22.3265 4.65863C17.4392 4.63845 12.5519 4.63817 7.66466 4.65919C5.85064 4.66703 4.64998 5.84808 4.64325 7.62007C4.62476 12.5356 4.62588 17.4515 4.64241 22.367C4.64858 24.1592 5.8823 25.3714 7.67195 25.375C12.5592 25.3851 17.4465 25.3823 22.3337 25.3736C22.9886 25.3725 23.6168 25.2139 24.1612 24.8225C25.045 24.187 25.3554 23.2729 25.3596 22.2356C25.37 19.8259 25.363 17.4165 25.363 15.0067Z" fill="black"/>
<path d="M16.4147 19.3302C16.2894 19.4361 16.1636 19.6267 16.0202 19.641C15.8736 19.6555 15.6394 19.5373 15.5665 19.4078C15.3381 19.0024 15.1526 18.5703 14.9809 18.1363C14.8834 17.8897 14.7391 17.821 14.4847 17.8227C12.9435 17.8337 11.4024 17.8345 9.86133 17.8222C9.59851 17.8202 9.46625 17.909 9.37266 18.1489C9.22304 18.5325 9.03754 18.9018 8.87166 19.2792C8.75006 19.5561 8.58866 19.7788 8.24738 19.6278C7.91226 19.4796 7.95036 19.2195 8.07757 18.9351C8.95712 16.9659 9.83135 14.9941 10.7081 13.0237C11.0488 12.2582 11.3792 11.4874 11.7423 10.7328C11.8197 10.5722 12.0292 10.359 12.1607 10.3705C12.3277 10.3851 12.5479 10.5717 12.6233 10.739C13.8494 13.4561 15.0568 16.1816 16.2667 18.906C16.3163 19.0175 16.3477 19.1369 16.4144 19.3302H16.4147ZM12.1803 11.9119C11.4352 13.6049 10.7258 15.2169 10.0006 16.8644H14.3574C13.6309 15.2115 12.9256 13.6079 12.18 11.9119H12.1803Z" fill="black"/>
<path d="M19.2532 14.9754C19.2532 13.6814 19.2529 12.3877 19.2537 11.0937C19.2537 10.9702 19.217 10.8144 19.2767 10.7298C19.3837 10.5784 19.5412 10.3885 19.6973 10.3686C19.8236 10.3526 20.01 10.5398 20.11 10.6796C20.1784 10.7751 20.1548 10.9438 20.1548 11.08C20.1568 13.6951 20.1562 16.3105 20.1562 18.9256C20.1562 19.0083 20.1602 19.0912 20.1534 19.1733C20.1305 19.4516 20.0038 19.6679 19.7062 19.669C19.3854 19.6701 19.2546 19.4493 19.2543 19.1456C19.2532 17.9757 19.2532 16.8056 19.2526 15.6358C19.2526 15.4156 19.2526 15.1953 19.2526 14.9751L19.2532 14.9754Z" fill="black"/>
</g>
<defs>
<clipPath id="clip0_31_71">
<rect width="30" height="30.0062" fill="white"/>
</clipPath>
</defs>
</svg>
