<svg width="20" height="18" viewBox="0 0 20 18" fill="none" xmlns="http://www.w3.org/2000/svg">
<path d="M16.1587 9.59548H15.6463C10.8584 9.59548 6.07042 9.59584 1.28247 9.59512C0.56662 9.59512 0.215191 9.37105 0.0474146 8.82082C-0.130465 8.23594 0.255963 7.63339 0.862484 7.55906C0.997067 7.54247 1.1349 7.54896 1.27092 7.54896C6.03181 7.5486 10.7923 7.54896 15.5532 7.54716C15.7643 7.54716 15.9754 7.52479 16.1868 7.51324C16.224 7.4584 16.2615 7.40355 16.2987 7.34871C16.0371 7.13475 15.76 6.93631 15.5161 6.70394C13.8387 5.10592 12.1659 3.50248 10.4965 1.89579C10.1588 1.5707 9.91196 1.19907 10.1036 0.696457C10.2731 0.25194 10.5982 -0.0190287 11.0254 0.0311239C11.305 0.0639576 11.6309 0.165706 11.8297 0.350441C13.3671 1.77889 14.8789 3.23512 16.3982 4.68305C17.4439 5.6796 18.4945 6.67111 19.5322 7.67633C20.1593 8.28357 20.1629 8.82695 19.5322 9.43131C16.9838 11.8736 14.4279 14.308 11.8715 16.7417C11.37 17.219 10.7512 17.24 10.3431 16.8142C9.91088 16.3635 9.92423 15.7267 10.4218 15.2468C11.834 13.8848 13.2689 12.5462 14.6783 11.1812C15.1809 10.6945 15.6358 10.1591 16.1587 9.5962V9.59548Z" fill="#132D46"/>
</svg>
