<svg width="28" height="23" viewBox="0 0 28 23" fill="none" xmlns="http://www.w3.org/2000/svg">
<g clip-path="url(#clip0_1_115)">
<path d="M0.0128174 9.95215H27.8996V12.7051H0.0128174V9.95215Z" fill="white"/>
<path d="M27.9763 22.7028H0.0128174V19.8993C0.294041 19.8993 0.588047 19.8993 0.880228 19.8993C9.58355 19.8993 18.2869 19.9119 26.9902 19.8794C27.8229 19.8758 28.0658 20.134 27.9854 20.9066C27.9288 21.4662 27.9745 22.0349 27.9745 22.7028H27.9763Z" fill="white"/>
<path d="M0 0H1.07924C9.62186 0 18.1645 0 26.7071 0C27.552 0 27.975 0.402569 27.9763 1.20771C27.9775 2.33297 27.4205 2.89561 26.3054 2.89561C17.9453 2.89561 9.58534 2.89561 1.2235 2.89561H0V0Z" fill="white"/>
</g>
<defs>
<clipPath id="clip0_1_115">
<rect width="28" height="22.7027" fill="white"/>
</clipPath>
</defs>
</svg>
