<svg width="30" height="27" viewBox="0 0 30 27" fill="none" xmlns="http://www.w3.org/2000/svg">
<g clip-path="url(#clip0_412_869)">
<path d="M15.0234 26.2646C11.327 26.2646 7.63056 26.2663 3.9337 26.2646C1.6433 26.2633 0.0137451 24.6599 0.00910613 22.3716C-0.000593603 17.4847 -0.00607606 12.5977 0.0112148 7.71072C0.0196493 5.255 1.94104 3.7216 3.8755 3.84643C5.06098 3.92276 6.25573 3.84263 7.44543 3.86878C7.95445 3.88017 8.28002 3.76124 8.37702 3.20456C8.43733 2.85916 8.59252 2.53064 8.69796 2.19241C9.10324 0.896022 9.96398 0.102753 11.3333 0.0812451C13.8375 0.0416027 16.3443 0.0542546 18.8481 0.112875C20.0892 0.141974 20.8715 0.89054 21.2743 2.04396C21.3911 2.37882 21.5535 2.70776 21.6045 3.05316C21.707 3.74985 22.103 3.89703 22.744 3.873C23.9329 3.82829 25.1242 3.85613 26.3148 3.86119C28.3302 3.87004 29.9547 5.36085 29.9707 7.37502C30.0112 12.4914 30.0091 17.6082 29.9695 22.7246C29.9539 24.7236 28.2804 26.2553 26.2384 26.2608C22.5002 26.2709 18.7616 26.2638 15.0234 26.2638V26.2646ZM17.949 11.6998C17.5003 12.1055 17.0338 12.467 16.6509 12.9018C16.4902 13.0844 16.3907 13.469 16.4742 13.6769C16.5573 13.8835 16.9022 14.1049 17.1376 14.1113C18.6187 14.1505 20.1019 14.1442 21.5838 14.1256C22.1595 14.1184 22.566 13.7937 22.5791 13.2079C22.6137 11.7057 22.612 10.2014 22.5719 8.69967C22.5656 8.4694 22.321 8.13286 22.108 8.05189C21.8934 7.9705 21.5353 8.07888 21.3224 8.2248C21.0006 8.44494 20.7252 8.74943 20.4755 9.05476C20.1491 9.45414 19.9075 9.40901 19.5098 9.09778C17.4994 7.52726 15.2685 7.09752 12.7984 7.83723C11.1773 8.32264 10.0496 9.44697 8.93328 10.6076C8.2602 11.3072 8.21086 12.119 8.78568 12.731C9.36766 13.3505 10.2583 13.3471 10.9647 12.6981C11.3949 12.3029 11.7888 11.8685 12.2114 11.4649C13.9261 9.82694 16.7964 10.2065 17.9485 11.699L17.949 11.6998ZM9.91084 20.5241C10.2162 20.7594 10.3794 20.8859 10.5434 21.0112C12.6373 22.6087 14.9302 23.0198 17.4395 22.1819C19.0741 21.6362 20.2212 20.4469 21.3034 19.2007C21.5383 18.9299 21.6635 18.4057 21.5876 18.0523C21.3308 16.8584 20.0315 16.5109 19.0973 17.3493C18.5546 17.8364 18.0768 18.3994 17.5137 18.8595C15.9778 20.115 13.3323 19.9214 12.0608 18.3471C12.4804 17.981 12.9477 17.6272 13.3412 17.2046C13.5103 17.0233 13.6587 16.6421 13.5782 16.4544C13.4795 16.2254 13.1341 15.9673 12.8878 15.9597C11.4076 15.9146 9.92476 15.918 8.44365 15.9475C7.79588 15.9601 7.48043 16.3021 7.47284 16.936C7.45555 18.3964 7.4488 19.8582 7.48296 21.3182C7.48886 21.5628 7.68033 21.9609 7.85872 22.0069C8.12398 22.0752 8.52631 21.9794 8.74097 21.7994C9.16734 21.4417 9.50514 20.9787 9.91127 20.5236L9.91084 20.5241Z" fill="white"/>
</g>
<defs>
<clipPath id="clip0_412_869">
<rect width="30" height="26.2087" fill="white" transform="translate(0 0.0584717)"/>
</clipPath>
</defs>
</svg>
