<svg width="16" height="16" viewBox="0 0 16 16" fill="none" xmlns="http://www.w3.org/2000/svg">
<path d="M6.45736 8.02934C4.23051 5.82168 2.10465 3.715 0 1.62853C0.581708 1.06702 1.08161 0.584283 1.62797 0.0561C1.67241 0.0964964 1.82188 0.221725 1.95922 0.358063C3.83059 2.22539 5.707 4.08766 7.5622 5.97114C7.87629 6.29027 8.05302 6.28825 8.36609 5.97114C10.2102 4.10079 12.0755 2.25063 13.9347 0.39442C14.0771 0.253032 14.2256 0.117705 14.3528 -0.00146484C14.88 0.519649 15.389 1.02258 16 1.62651C13.8832 3.7251 11.7493 5.84086 9.58101 7.98995C11.716 10.1087 13.8287 12.2063 15.9172 14.2797C15.385 14.8048 14.8901 15.2926 14.3629 15.8117C12.3007 13.7444 10.1799 11.6165 8.02272 9.45432C7.81872 9.64318 7.68339 9.76032 7.55816 9.88656C5.66357 11.7781 3.76494 13.6646 1.88247 15.5683C1.60677 15.8471 1.42296 15.8975 1.15837 15.5784C0.945276 15.3199 0.684719 15.1007 0.44638 14.8624C0.131288 14.5473 0.126912 14.2366 0.433251 13.9302C2.29149 12.074 4.14871 10.2168 6.00997 8.36362C6.12813 8.24546 6.28063 8.16063 6.45736 8.03035V8.02934Z" fill="white"/>
</svg>
