<svg width="10" height="11" viewBox="0 0 10 11" fill="none" xmlns="http://www.w3.org/2000/svg">
<path d="M4.03585 5.24047C2.64407 3.86069 1.31541 2.54401 0 1.23997C0.363568 0.889025 0.676008 0.587314 1.01748 0.2572C1.04526 0.282448 1.13867 0.360716 1.22452 0.445927C2.39412 1.613 3.56687 2.77693 4.72638 3.9541C4.92268 4.15356 5.03314 4.1523 5.22881 3.9541C6.38137 2.78513 7.54718 1.62878 8.70921 0.46865C8.79821 0.380283 8.89099 0.295703 8.97052 0.221222C9.30001 0.546918 9.61813 0.861252 10 1.23871C8.67702 2.55033 7.34331 3.87268 5.98813 5.21586C7.32248 6.5401 8.64293 7.85109 9.94824 9.14693C9.6156 9.47515 9.30632 9.78002 8.97684 10.1045C7.68794 8.8124 6.36243 7.48247 5.0142 6.13109C4.8867 6.24912 4.80212 6.32234 4.72385 6.40124C3.53973 7.58347 2.35309 8.76254 1.17654 9.95234C1.00423 10.1265 0.889352 10.1581 0.723979 9.95865C0.590797 9.79706 0.427949 9.66009 0.278988 9.51113C0.0820552 9.3142 0.07932 9.12 0.270782 8.92854C1.43218 7.76841 2.59294 6.60764 3.75623 5.4494C3.83008 5.37555 3.92539 5.32253 4.03585 5.24111V5.24047Z" fill="#132D46"/>
</svg>
