<svg width="18" height="19" viewBox="0 0 18 19" fill="none" xmlns="http://www.w3.org/2000/svg">
<g clip-path="url(#clip0_259_1043)">
<path d="M14.4972 0.162858C15.0731 0.160816 15.5395 0.348039 15.9248 0.732018C16.3977 1.20314 16.8719 1.67324 17.3423 2.14709C18.2195 3.03078 18.2209 4.2171 17.3355 5.09977C15.5439 6.88656 13.7449 8.66621 11.953 10.4523C10.2601 12.1397 8.54926 13.8101 6.89183 15.5319C6.11842 16.3349 5.25141 16.8843 4.16858 17.1515C3.04285 17.4289 1.93551 17.7809 0.82 18.0992C0.586822 18.1659 0.360792 18.2054 0.155527 18.011C-0.0531421 17.8139 -0.0143358 17.6015 0.0568091 17.3592C0.456106 15.9972 0.843488 14.6318 1.23734 13.2682C1.40788 12.6779 1.70914 12.1669 2.14656 11.7302C5.78108 8.10011 9.41321 4.46764 13.0419 0.832097C13.4579 0.415099 13.9403 0.175113 14.4972 0.162858ZM1.35001 16.7842C1.49537 16.7597 1.558 16.7549 1.61689 16.7379C2.44272 16.4996 3.26514 16.2488 4.09403 16.0231C4.79152 15.8331 5.40323 15.5325 5.92507 15.0049C8.49242 12.4114 11.0798 9.83788 13.6588 7.2559C13.7541 7.16059 13.8361 7.05234 13.8783 7.00332C12.9602 6.07231 12.0714 5.17091 11.1677 4.2542C11.1003 4.31411 11.0165 4.38049 10.9416 4.45538C8.28443 7.11225 5.62075 9.76265 2.98226 12.4376C2.6776 12.7463 2.45803 13.1715 2.296 13.581C2.06384 14.1679 1.91815 14.7898 1.74046 15.3977C1.61213 15.8372 1.49162 16.2794 1.34967 16.7842H1.35001ZM16.9896 3.60062C16.8467 3.35485 16.7541 3.10839 16.589 2.92866C16.1597 2.46264 15.7015 2.02284 15.2488 1.57827C14.7991 1.1371 14.312 1.12757 13.8579 1.56397C13.2843 2.11475 12.7267 2.68255 12.1552 3.23605C12.0149 3.37187 12.0129 3.46582 12.1535 3.60471C12.949 4.39036 13.7398 5.18011 14.5251 5.97598C14.6807 6.13392 14.7882 6.14107 14.9455 5.97598C15.4871 5.40886 16.0518 4.86353 16.5839 4.2879C16.7503 4.10783 16.8412 3.85797 16.9896 3.60062Z" fill="#132D46"/>
</g>
<defs>
<clipPath id="clip0_259_1043">
<rect width="18" height="17.9908" fill="white" transform="translate(0 0.162842)"/>
</clipPath>
</defs>
</svg>
