<svg width="14" height="12" viewBox="0 0 14 12" fill="none" xmlns="http://www.w3.org/2000/svg">
<g clip-path="url(#clip0_362_880)">
<path d="M6.97762 11.4207C5.26661 11.4207 3.55527 11.4207 1.84426 11.4207C0.768861 11.4207 0.000336482 10.6575 0.000336482 9.58752C0 7.32703 0 5.06621 0 2.80573C0 1.67145 0.717379 0.915373 1.84628 0.912344C5.2831 0.902923 8.72026 0.902586 12.1571 0.912344C13.2789 0.915709 14.0003 1.66976 14.0003 2.78588C14.0003 5.04636 14.0003 7.30718 14.0003 9.56767C14.0003 10.6592 13.2412 11.4207 12.1554 11.4207C10.4296 11.4207 8.70378 11.4207 6.97796 11.4207H6.97762ZM7.0032 1.77105C5.23364 1.77105 3.46374 1.77037 1.69419 1.77138C1.19586 1.77138 0.840868 2.12671 0.835821 2.62672C0.832793 2.92652 0.84255 3.227 0.832456 3.52647C0.826736 3.69 0.882928 3.80138 1.01584 3.89526C1.36814 4.14358 1.7137 4.40132 2.06196 4.65537C3.41866 5.64597 4.77434 6.63826 6.13238 7.62718C6.74377 8.07234 7.26296 8.06931 7.88074 7.6191C8.7132 7.01242 9.54464 6.4044 10.3768 5.79705C11.2499 5.15942 12.1221 4.52044 12.9976 3.88617C13.1235 3.79498 13.1729 3.68664 13.1682 3.5332C13.1598 3.2556 13.1665 2.97733 13.1659 2.6994C13.1645 2.11022 12.8297 1.77172 12.2466 1.77172C10.4989 1.77172 8.75122 1.77172 7.0032 1.77172V1.77105ZM0.867114 4.86769C0.853654 4.98209 0.836494 5.05847 0.836494 5.13519C0.834811 6.65676 0.833802 8.17867 0.836494 9.70024C0.837167 10.2009 1.20864 10.5704 1.71303 10.5704C5.23768 10.5721 8.76232 10.5721 12.287 10.5704C12.791 10.5704 13.1638 10.2016 13.1649 9.70125C13.1675 8.17968 13.1665 6.65777 13.1642 5.1362C13.1642 5.05645 13.14 4.97637 13.1188 4.84548C12.8543 5.03896 12.6322 5.20148 12.4098 5.36366C11.0464 6.35763 9.6826 7.35092 8.31985 8.34556C7.78619 8.73487 7.20778 8.89336 6.54592 8.75607C6.06542 8.65647 5.7064 8.35902 5.33021 8.0858C3.91194 7.05516 2.49737 6.01947 1.08078 4.9868C1.02526 4.94642 0.959983 4.91883 0.867114 4.86735V4.86769Z" fill="#132D46"/>
</g>
<defs>
<clipPath id="clip0_362_880">
<rect width="14" height="10.5157" fill="white" transform="translate(0 0.904968)"/>
</clipPath>
</defs>
</svg>
