<svg width="32" height="32" viewBox="0 0 32 32" fill="none" xmlns="http://www.w3.org/2000/svg">
<circle cx="16" cy="16" r="16" fill="white"/>
<path d="M21.4963 19.603C20.04 19.1281 18.8003 18.4199 17.6806 17.5055C15.8309 18.8226 13.5319 18.026 12.1183 16.4843C10.9199 15.1775 10.3379 13.5976 10.0919 11.8726C9.87459 10.353 10.0315 8.8798 10.6827 7.48022C11.0768 6.63282 11.6594 5.95844 12.5809 5.63965C12.5286 5.68161 12.4763 5.72505 12.4233 5.76628C12.3688 5.80898 12.3113 5.84727 12.2583 5.89144C11.4163 6.59527 11.0083 7.53397 10.8698 8.58825C10.8027 9.09919 10.7718 9.64032 10.8646 10.1424C11.0392 11.0848 11.9298 11.6841 12.8771 11.598C13.8163 11.5126 14.5441 10.752 14.6022 9.79567C14.6059 9.73971 14.6148 9.68376 14.6266 9.58289C16.6081 10.4752 18.1999 11.785 19.4249 13.535C20.6868 15.3373 21.377 17.3383 21.4949 19.6022L21.4963 19.603Z" fill="#132D46"/>
<path d="M14.5843 18.9164C15.6576 19.1424 16.6395 19.0401 17.5956 18.5586C17.6391 18.6381 17.684 18.711 17.7201 18.7876C18.1665 19.7425 18.6166 20.6959 19.0571 21.6537C19.9499 23.5951 19.1808 25.7449 17.2627 26.6814C17.0608 26.7801 16.8553 26.8721 16.5857 26.9973C17.0623 25.7736 16.3596 24.8644 15.9382 23.8948C15.662 24.0347 15.413 24.2033 15.1382 24.2879C14.8738 24.3689 14.5821 24.363 14.2734 24.3623C14.6255 23.9566 14.588 23.4891 14.5865 23.0268C14.5828 21.7737 14.585 20.5214 14.585 19.2683C14.585 19.1616 14.585 19.0548 14.585 18.9164H14.5843Z" fill="#132D46"/>
<path d="M21.4583 9.40445C20.7748 8.74699 20.0101 8.69619 19.2138 8.7065C17.8039 8.72564 16.3933 8.71313 14.9827 8.71165C14.0405 8.71018 13.2288 8.01665 13.1286 7.13244C13.0129 6.11497 13.6067 5.25579 14.5805 5.03787C14.6851 5.01431 14.7956 5.00695 14.9031 5.00695C15.9093 5.00547 16.9156 4.98928 17.9211 5.0121C19.8473 5.0548 21.4517 6.7069 21.4583 8.62846C21.4583 8.85301 21.4583 9.07756 21.4583 9.40445Z" fill="#00C48E"/>
<path d="M12.3055 6.74814C12.5943 6.76139 12.8233 7.01097 12.8079 7.29589C12.7917 7.5867 12.5523 7.79874 12.2532 7.78696C11.9593 7.77518 11.7361 7.53296 11.7523 7.24288C11.7685 6.95134 12.0108 6.73488 12.3055 6.74814Z" fill="#132D46"/>
</svg>
