<svg width="92" height="80" viewBox="0 0 92 80" fill="none" xmlns="http://www.w3.org/2000/svg">
<g clip-path="url(#clip0_116_237)">
<path d="M51.0975 79.9882C38.7733 79.9882 26.4491 79.9868 14.1249 79.9882C6.56942 79.9882 0.224861 73.8978 0.200259 66.3068C0.129187 45.1956 0.172924 24.0816 0.183858 2.96909C0.185225 0.969498 1.08866 0.0127568 2.84497 -0.000910901C4.74068 -0.0159454 5.55801 0.871091 5.55801 3.00599C5.56211 23.2848 5.54024 43.5623 5.59491 63.8411C5.59901 65.6247 5.82727 67.5013 6.41361 69.1715C7.5863 72.5187 10.8338 74.5019 14.6266 74.506C26.9015 74.5197 39.1765 74.5115 51.4515 74.5115C63.8249 74.5115 76.1983 74.5074 88.5704 74.5142C91.1782 74.5156 92.6037 76.6396 91.416 78.713C90.8338 79.7271 89.9235 80.0032 88.8068 79.9991C82.3748 79.9772 75.9428 79.9882 69.5107 79.9882C63.3739 79.9882 57.2357 79.9882 51.0989 79.9882H51.0975Z" fill="#00C48E"/>
<path d="M76.4422 22.6885C75.5278 22.6229 75.018 22.5559 74.5082 22.5545C69.8434 22.5463 65.1786 22.5737 60.5124 22.5408C58.2969 22.5258 57.0818 20.693 57.8882 18.707C58.3092 17.671 59.1033 17.1954 60.1858 17.1954C67.9449 17.1886 75.7028 17.1681 83.4619 17.2091C85.2483 17.2186 86.0192 18.2041 86.0287 20.2638C86.0492 25.0762 86.0369 29.8886 86.0369 34.701C86.0369 37.3526 86.0725 40.0055 86.0178 42.6557C85.9795 44.5582 85.0529 45.4698 83.3526 45.4562C81.5689 45.4425 80.6819 44.5664 80.6737 42.6994C80.6532 38.133 80.6723 33.5652 80.6628 28.9989C80.6628 28.4357 80.5849 27.8713 80.5165 26.9432C79.8126 27.5104 79.3493 27.8221 78.9598 28.2075C72.6767 34.4167 66.4019 40.6356 60.127 46.853C58.055 48.9059 56.9178 48.8964 54.8116 46.8079C50.3833 42.4192 45.9235 38.0633 41.5443 33.6268C40.5247 32.5935 39.9179 32.6714 38.9379 33.6609C33.5487 39.102 28.1185 44.5022 22.635 49.849C21.9612 50.5064 20.8978 51.0818 20.0053 51.0955C19.2714 51.1064 18.1725 50.3807 17.8759 49.7027C17.5492 48.9538 17.8622 47.8644 18.0796 46.9678C18.1793 46.5537 18.7055 46.2366 19.0513 45.8894C25.2633 39.672 31.4767 33.4559 37.6928 27.2412C39.7197 25.2156 40.8227 25.2266 42.8933 27.2822C47.3545 31.7078 51.8361 36.1129 56.2563 40.5795C57.1912 41.524 57.7406 41.5704 58.7179 40.5754C64.1849 35.0072 69.7313 29.5182 75.2476 23.9978C75.551 23.6944 75.8271 23.3636 76.4408 22.6885H76.4422Z" fill="#00C48E"/>
</g>
<defs>
<clipPath id="clip0_116_237">
<rect width="91.6777" height="80" fill="white" transform="translate(0.161133)"/>
</clipPath>
</defs>
</svg>
