<svg width="40" height="77" viewBox="0 0 40 77" fill="none" xmlns="http://www.w3.org/2000/svg">
<g clip-path="url(#clip0_100_387)">
<path d="M40 50.836C34.9329 49.1838 30.6184 46.7168 26.7229 43.5343C20.2865 48.1192 12.2883 45.3462 7.37026 39.9794C3.2015 35.43 1.17781 29.9311 0.319532 23.9256C-0.435948 18.6364 0.108988 13.5082 2.37625 8.63602C3.7485 5.68717 5.77426 3.33857 8.98237 2.22806C8.79948 2.37503 8.61866 2.52406 8.4333 2.66814C8.24381 2.81593 8.04359 2.95051 7.85947 3.10491C4.93044 5.55465 3.51071 8.82262 3.02935 12.4939C2.7961 14.2736 2.68877 16.157 3.01243 17.9032C3.62052 21.1848 6.71923 23.2705 10.0153 22.9703C13.2841 22.6723 15.8164 20.0244 16.0191 16.6961C16.031 16.5013 16.0628 16.3077 16.1033 15.9555C22.9988 19.0616 28.5365 23.6222 32.7981 29.7135C37.1874 35.9873 39.5909 42.9538 40 50.8356V50.836Z" fill="white"/>
<path d="M15.9501 48.4473C19.6838 49.2334 23.0995 48.8779 26.4286 47.2018C26.5801 47.4792 26.7357 47.7315 26.8604 47.9986C28.4143 51.3227 29.9785 54.6423 31.5114 57.9763C34.6183 64.7343 31.9428 72.2181 25.2673 75.4799C24.5643 75.8234 23.8496 76.1433 22.9121 76.5805C24.5696 72.3218 22.1248 69.1558 20.6597 65.78C19.699 66.2668 18.8321 66.8542 17.8752 67.1477C16.9545 67.4301 15.941 67.4078 14.866 67.4058C16.0905 65.9939 15.9592 64.3669 15.9547 62.7569C15.9419 58.3957 15.9501 54.0346 15.9501 49.673C15.9501 49.3015 15.9501 48.9303 15.9501 48.4473Z" fill="white"/>
<path d="M39.8683 15.3334C37.4908 13.0438 34.8305 12.8675 32.0592 12.9043C27.1527 12.9699 22.2446 12.9282 17.3368 12.9212C14.0577 12.9167 11.234 10.502 10.8851 7.42477C10.4834 3.88186 12.5497 0.891312 15.9378 0.132116C16.3019 0.050375 16.6854 0.0243666 17.0598 0.023541C20.5602 0.018587 24.0618 -0.0367323 27.5606 0.0408799C34.2617 0.189499 39.846 5.94023 39.8675 12.631C39.87 13.4121 39.8675 14.1936 39.8675 15.3334H39.8683Z" fill="white"/>
<path d="M8.02089 6.08759C9.02448 6.13342 9.82207 7.00367 9.76799 7.99363C9.71267 9.00631 8.87958 9.74404 7.83801 9.70275C6.81501 9.6623 6.03848 8.81888 6.09504 7.80992C6.15159 6.79436 6.99459 6.04094 8.02089 6.08759Z" fill="white"/>
</g>
<defs>
<clipPath id="clip0_100_387">
<rect width="40" height="76.5805" fill="white"/>
</clipPath>
</defs>
</svg>
