<svg width="16" height="14" viewBox="0 0 16 14" fill="none" xmlns="http://www.w3.org/2000/svg">
<g clip-path="url(#clip0_774_1466)">
<path d="M8.33 4.52208C8.81943 4.52208 9.30911 4.51802 9.79831 4.52304C10.4523 4.52997 10.9494 5.03302 10.9528 5.69396C10.9571 6.56177 10.9571 7.42933 10.9528 8.29713C10.9494 8.94876 10.4557 9.44966 9.7878 9.45754C8.80892 9.46901 7.82957 9.47403 6.85117 9.45348C6.53252 9.4468 6.44319 9.55357 6.4654 9.85359C6.48833 10.1634 6.47281 10.4763 6.4697 10.7876C6.46469 11.2758 6.25663 11.6544 5.80948 11.8565C5.34655 12.0657 4.8853 12.0242 4.50383 11.6697C3.46142 10.7013 2.43095 9.72006 1.39665 8.74309C1.04122 8.40725 0.680055 8.0769 0.336565 7.72911C-0.108682 7.27837 -0.117043 6.68622 0.340626 6.24981C1.7325 4.92338 3.13489 3.60794 4.54038 2.29561C4.90632 1.95379 5.35587 1.95283 5.79037 2.12076C6.23824 2.29394 6.44916 2.66776 6.46684 3.14024C6.48021 3.49567 6.48404 3.85278 6.46564 4.20774C6.45251 4.46404 6.55283 4.53283 6.7948 4.52567C7.30621 4.51086 7.8181 4.52113 8.32976 4.52113L8.33 4.52208ZM7.82647 5.45247C7.29236 5.45247 6.75825 5.45271 6.22415 5.45247C5.63463 5.45199 5.54242 5.36122 5.54242 4.78579C5.54242 4.31857 5.55365 3.85063 5.53454 3.38412C5.52929 3.25657 5.46312 3.07169 5.36948 3.02582C5.28707 2.98522 5.11127 3.07933 5.00569 3.15457C4.85329 3.2635 4.72765 3.40968 4.58982 3.53891C3.45497 4.60401 2.32083 5.66984 1.1843 6.73303C1.0202 6.88638 0.920116 7.0051 1.14489 7.21339C2.4417 8.41465 3.72465 9.63048 5.01859 10.8348C5.10578 10.9161 5.31526 11.0128 5.34345 10.9834C5.43971 10.8829 5.52666 10.7314 5.53335 10.5953C5.55604 10.1402 5.54218 9.68327 5.54242 9.22704C5.54242 8.60981 5.61886 8.52931 6.22869 8.52811C7.34133 8.52596 8.45397 8.52979 9.56661 8.52596C9.9359 8.52453 10.0209 8.43687 10.0226 8.07307C10.0257 7.34979 10.0264 6.6265 10.0226 5.90345C10.0207 5.54228 9.9316 5.45653 9.56231 5.45414C8.98377 5.45032 8.40524 5.45319 7.82647 5.45295V5.45247Z" fill="white"/>
<path d="M15.9986 6.99943C15.9986 8.43454 15.9986 9.86941 15.9986 11.3045C15.9986 12.9522 14.9815 13.9731 13.3403 13.9729C12.4503 13.9729 11.5605 13.9739 10.6705 13.9724C10.2429 13.9717 10.0391 13.8217 10.0296 13.5071C10.02 13.193 10.2493 13.0193 10.6855 13.0186C11.5977 13.0167 12.51 13.0203 13.422 13.0172C14.3832 13.0138 15.0233 12.4157 15.0377 11.4469C15.0604 9.93438 15.0467 8.42116 15.0477 6.90842C15.0484 5.54019 15.0494 4.17196 15.0472 2.80374C15.0453 1.52986 14.4833 0.966135 13.2213 0.965897C12.4426 0.965897 11.6639 0.965897 10.8852 0.965897C10.8295 0.965897 10.7739 0.967091 10.7182 0.96518C10.2474 0.947504 10.0174 0.779581 10.0329 0.466188C10.0485 0.151839 10.2546 0.00851938 10.7197 0.0106692C11.7535 0.0159242 12.7928 -0.0356709 13.8199 0.0531874C15.1411 0.167605 15.9917 1.189 15.9969 2.52761C16.0027 4.01813 15.9984 5.5089 15.9981 6.99943H15.9986Z" fill="white"/>
</g>
<defs>
<clipPath id="clip0_774_1466">
<rect width="16" height="13.9727" fill="white"/>
</clipPath>
</defs>
</svg>
