<svg width="17" height="15" viewBox="0 0 17 15" fill="none" xmlns="http://www.w3.org/2000/svg">
<g clip-path="url(#clip0_259_1223)">
<path d="M8.83 4.69841C9.31943 4.69841 9.80911 4.69435 10.2983 4.69937C10.9523 4.7063 11.4494 5.20935 11.4528 5.87029C11.4571 6.7381 11.4571 7.60566 11.4528 8.47346C11.4494 9.12509 10.9557 9.62599 10.2878 9.63387C9.30892 9.64534 8.32957 9.65036 7.35117 9.62981C7.03253 9.62313 6.94319 9.7299 6.9654 10.0299C6.98833 10.3397 6.97281 10.6526 6.9697 10.9639C6.96469 11.4521 6.75663 11.8307 6.30948 12.0328C5.84655 12.2421 5.3853 12.2005 5.00383 11.846C3.96142 10.8777 2.93095 9.89639 1.89665 8.91943C1.54122 8.58358 1.18006 8.25323 0.836565 7.90544C0.391318 7.4547 0.382957 6.86255 0.840626 6.42614C2.2325 5.09971 3.63489 3.78427 5.04038 2.47194C5.40632 2.13012 5.85587 2.12917 6.29037 2.29709C6.73824 2.47027 6.94916 2.84409 6.96684 3.31657C6.98021 3.672 6.98404 4.02911 6.96564 4.38407C6.95251 4.64037 7.05283 4.70916 7.2948 4.702C7.80621 4.68719 8.3181 4.69746 8.82976 4.69746L8.83 4.69841ZM8.32647 5.6288C7.79236 5.6288 7.25825 5.62904 6.72415 5.6288C6.13463 5.62832 6.04242 5.53755 6.04242 4.96212C6.04242 4.4949 6.05365 4.02696 6.03454 3.56045C6.02929 3.4329 5.96312 3.24802 5.86948 3.20215C5.78708 3.16155 5.61127 3.25566 5.50569 3.3309C5.35329 3.43983 5.22765 3.58601 5.08982 3.71524C3.95497 4.78035 2.82083 5.84617 1.6843 6.90936C1.5202 7.06272 1.42012 7.18143 1.64489 7.38972C2.9417 8.59098 4.22465 9.80681 5.51859 11.0112C5.60578 11.0924 5.81526 11.1891 5.84345 11.1598C5.93971 11.0592 6.02666 10.9078 6.03335 10.7716C6.05604 10.3166 6.04218 9.8596 6.04242 9.40337C6.04242 8.78614 6.11886 8.70564 6.72869 8.70444C7.84133 8.7023 8.95397 8.70612 10.0666 8.7023C10.4359 8.70086 10.5209 8.6132 10.5226 8.2494C10.5257 7.52612 10.5264 6.80283 10.5226 6.07978C10.5207 5.71861 10.4316 5.63286 10.0623 5.63047C9.48377 5.62665 8.90524 5.62952 8.32647 5.62928V5.6288Z" fill="#132D46"/>
<path d="M16.4986 7.1757C16.4986 8.61081 16.4986 10.0457 16.4986 11.4808C16.4986 13.1285 15.4815 14.1494 13.8403 14.1492C12.9503 14.1492 12.0605 14.1501 11.1705 14.1487C10.7429 14.148 10.5391 13.998 10.5296 13.6834C10.52 13.3693 10.7493 13.1956 11.1855 13.1949C12.0977 13.193 13.01 13.1966 13.922 13.1935C14.8832 13.1901 15.5233 12.592 15.5377 11.6232C15.5604 10.1107 15.5467 8.59743 15.5477 7.08469C15.5484 5.71646 15.5494 4.34823 15.5472 2.98001C15.5453 1.70613 14.9833 1.1424 13.7213 1.14217C12.9426 1.14217 12.1639 1.14217 11.3852 1.14217C11.3295 1.14217 11.2739 1.14336 11.2182 1.14145C10.7474 1.12377 10.5174 0.95585 10.5329 0.642457C10.5485 0.328109 10.7546 0.184789 11.2197 0.186939C12.2535 0.192194 13.2928 0.140599 14.3199 0.229457C15.6411 0.343874 16.4917 1.36527 16.4969 2.70388C16.5027 4.1944 16.4984 5.68517 16.4981 7.1757H16.4986Z" fill="#132D46"/>
</g>
<defs>
<clipPath id="clip0_259_1223">
<rect width="16" height="13.9727" fill="white" transform="translate(0.5 0.176453)"/>
</clipPath>
</defs>
</svg>
