<svg width="20" height="18" viewBox="0 0 20 18" fill="none" xmlns="http://www.w3.org/2000/svg">
<path d="M9.94436 2.65511C11.0007 1.54417 12.1393 0.866988 13.5238 0.623186C16.4785 0.103268 19.4566 2.24111 19.9172 5.19797C20.2795 7.5236 19.4537 9.3803 17.7629 10.9329C15.6466 12.8768 13.5457 14.8377 11.4384 16.7913C11.3038 16.9162 11.1741 17.0469 11.0352 17.1672C10.3196 17.7852 9.62982 17.7751 8.93791 17.1328C6.77098 15.1202 4.61842 13.0923 2.43425 11.0984C1.41309 10.1663 0.571448 9.13865 0.210952 7.77602C-0.686698 4.38542 1.38257 1.13197 4.84714 0.603797C6.75985 0.31224 8.39142 1.01205 9.75764 2.3535C9.82694 2.42172 9.86428 2.52297 9.94436 2.65475V2.65511ZM5.90744 1.73914C3.80227 1.73304 2.11218 2.87772 1.48454 4.56531C0.76175 6.5089 1.31793 8.47547 2.97715 9.99824C5.14336 11.9867 7.29126 13.9949 9.44275 15.9992C10.0147 16.5321 10 16.5321 10.5573 16.0129C12.5497 14.1565 14.5457 12.3034 16.545 10.4542C17.4189 9.64564 18.2745 8.84171 18.6286 7.63419C19.2419 5.54338 18.4035 3.31111 16.5812 2.30897C14.6452 1.24436 12.391 1.6781 10.9264 3.39621C10.0729 4.39762 9.9185 4.40516 9.06789 3.36892C8.18101 2.28815 7.02807 1.79408 5.90708 1.73879L5.90744 1.73914Z" fill="#132D46"/>
</svg>
