<svg width="40" height="40" viewBox="0 0 40 40" fill="none" xmlns="http://www.w3.org/2000/svg">
<rect width="40" height="40" rx="20" fill="#132D46"/>
<g clip-path="url(#clip0_844_1496)">
<path d="M17.3718 28.9919C17.3718 28.7959 17.3718 28.6549 17.3718 28.5139C17.3718 24.8369 17.3774 21.1603 17.3633 17.4833C17.3618 17.1069 17.4573 16.9884 17.8406 17.001C18.6996 17.029 19.5613 17.0316 20.4204 17.001C20.8533 16.9855 20.9765 17.1512 20.9435 17.549C20.918 17.8572 20.9384 18.169 20.9384 18.5625C21.0649 18.4672 21.1263 18.4396 21.1603 18.3927C22.2588 16.8792 23.7898 16.5249 25.5371 16.7784C26.6064 16.9338 27.6245 17.2855 28.1466 18.2916C28.5136 18.9987 28.8247 19.8117 28.8702 20.5942C28.9949 22.7329 28.9672 24.8805 28.996 27.0247C29.0034 27.5684 28.9923 28.112 28.9986 28.6556C29.0012 28.8741 28.9553 29 28.6908 28.9966C27.6589 28.9848 26.6267 28.9871 25.5945 28.9955C25.3658 28.9974 25.2937 28.9051 25.2948 28.6907C25.3033 26.8026 25.3233 24.9141 25.3022 23.0259C25.2952 22.4029 25.2438 21.7656 25.0995 21.1618C24.8623 20.1712 23.7883 19.7125 22.6288 20.0092C21.722 20.241 21.3472 20.909 21.1677 21.7342C21.0986 22.0527 21.0712 22.386 21.0697 22.7126C21.0608 24.6583 21.0564 26.604 21.0734 28.5497C21.0764 28.9114 20.9661 29.0074 20.612 29C19.5539 28.9775 18.4947 28.9919 17.3714 28.9919H17.3718Z" fill="white"/>
<path d="M11.275 23.0016C11.275 21.1574 11.2835 19.3128 11.2676 17.4686C11.2647 17.1043 11.393 16.9984 11.7401 17.0043C12.6709 17.0206 13.6025 17.0187 14.5334 17.0051C14.8605 17.0003 14.984 17.0999 14.9829 17.4465C14.9722 21.1637 14.974 24.8809 14.9807 28.5981C14.9811 28.8819 14.913 29.0041 14.5978 28.9982C13.624 28.9793 12.6495 28.9775 11.6757 28.9989C11.3413 29.0063 11.2676 28.8852 11.2695 28.5771C11.2809 26.7185 11.2754 24.8599 11.2754 23.0012L11.275 23.0016Z" fill="white"/>
<path d="M13.1359 15.2729C11.9583 15.2747 11.0048 14.3273 11 13.15C10.9952 11.983 11.9597 11.0057 13.1215 10.9998C14.3102 10.9939 15.2902 11.972 15.2832 13.1578C15.2766 14.3222 14.3131 15.2714 13.1359 15.2732V15.2729Z" fill="white"/>
</g>
<defs>
<clipPath id="clip0_844_1496">
<rect width="18" height="18" fill="white" transform="translate(11 11)"/>
</clipPath>
</defs>
</svg>
