<svg width="14" height="20" viewBox="0 0 14 20" fill="none" xmlns="http://www.w3.org/2000/svg">
<g clip-path="url(#clip0_259_931)">
<path d="M7.05943 0.793823C11.0077 0.892543 13.7238 3.81142 13.9843 7.25661C14.1057 8.86266 13.5443 10.2751 12.8421 11.6427C11.4918 14.2722 9.77203 16.6624 7.94703 18.9787C7.35795 19.7263 6.63095 19.7139 6.0348 18.9551C4.22307 16.6486 2.49826 14.2781 1.17394 11.6542C0.699195 10.7139 0.283097 9.69397 0.103927 8.66433C-0.293901 6.37903 0.479359 4.4008 2.11016 2.77618C3.45246 1.43919 5.12834 0.865727 7.05943 0.793823ZM6.98959 18.3858C7.22504 18.0958 7.41541 17.8742 7.59223 17.642C9.29257 15.4097 10.9605 13.1533 12.1286 10.583C12.4431 9.89111 12.7413 9.15233 12.8382 8.40795C13.3725 4.3062 9.3353 0.988317 5.32903 2.15793C2.19562 3.07293 0.282213 6.6472 1.44652 9.54044C2.75552 12.7941 4.80006 15.57 6.98959 18.3858Z" fill="#132D46"/>
<path d="M6.98062 10.7239C5.38547 10.7218 4.08001 9.40519 4.09386 7.81181C4.10771 6.21255 5.40699 4.93655 7.01981 4.93891C8.60523 4.94097 9.90951 6.25793 9.90391 7.85101C9.89831 9.42965 8.57929 10.7263 6.98062 10.7239ZM7.00154 6.0378C6.01139 6.03632 5.21397 6.82608 5.20395 7.81771C5.19393 8.80137 5.99459 9.61825 6.97561 9.62502C7.98226 9.6318 8.80561 8.81729 8.79942 7.82036C8.79353 6.8417 7.98373 6.03897 7.00154 6.0378Z" fill="#132D46"/>
</g>
<defs>
<clipPath id="clip0_259_931">
<rect width="14" height="18.738" fill="white" transform="translate(0 0.793823)"/>
</clipPath>
</defs>
</svg>
