<svg width="344" height="138" viewBox="0 0 344 138" fill="none" xmlns="http://www.w3.org/2000/svg">
<g clip-path="url(#clip0_102_474)">
<path d="M115.981 62.9057C113.439 64.9379 109.627 65.954 105.814 65.954C95.9019 65.954 90.2272 60.7026 90.2272 50.7125V28.9542H82.7733V20.4882H90.2272V10.161H100.814V20.4882H112.926V28.9542H100.814V50.4585C100.814 54.8601 103.018 57.234 107.08 57.234C109.285 57.234 111.401 56.6429 113.009 55.3727L115.976 62.9057H115.981Z" fill="#00C48E"/>
<path d="M119.026 6.35061C119.026 2.79427 121.91 0 125.805 0C129.701 0 132.58 2.62338 132.58 6.09659C132.58 9.82382 129.784 12.7012 125.805 12.7012C121.826 12.7012 119.031 9.90696 119.031 6.35061H119.026ZM120.468 20.1511H131.055V65.3582H120.468V20.1511Z" fill="#00C48E"/>
<path d="M136.984 42.7546C136.984 29.2082 147.15 19.643 161.466 19.643C170.274 19.643 177.307 23.2825 180.778 30.1412L172.645 34.8845C169.932 30.5661 165.87 28.6216 161.378 28.6216C153.587 28.6216 147.654 34.0393 147.654 42.7593C147.654 51.4792 153.583 56.8969 161.378 56.8969C165.865 56.8969 169.932 54.9478 172.645 50.634L180.778 55.3727C177.303 62.1436 170.274 65.954 161.466 65.954C147.15 65.954 136.984 56.3011 136.984 42.7546Z" fill="#00C48E"/>
<path d="M181.286 42.7546C181.286 29.2082 191.453 19.643 205.344 19.643C219.235 19.643 229.484 29.2082 229.484 42.7546C229.484 56.3011 219.406 65.954 205.344 65.954C191.282 65.954 181.286 56.3011 181.286 42.7546ZM218.81 42.7546C218.81 34.1178 213.052 28.617 205.339 28.617C197.626 28.617 191.956 34.1224 191.956 42.7546C191.956 51.3869 197.714 56.8923 205.339 56.8923C212.964 56.8923 218.81 51.3869 218.81 42.7546Z" fill="#00C48E"/>
<path d="M88.79 74.5909H99.377V137.409H88.79V74.5909Z" fill="#132D46"/>
<path d="M146.896 110.912V137.409H136.9V131.903C134.359 135.797 129.447 138 122.672 138C112.339 138 105.814 132.328 105.814 124.454C105.814 116.579 110.897 110.995 124.617 110.995H136.309V110.316C136.309 104.136 132.58 100.497 125.043 100.497C119.959 100.497 114.71 102.192 111.318 104.986L107.168 97.2822C111.997 93.5549 119.026 91.6936 126.313 91.6936C139.359 91.6936 146.896 97.8734 146.896 110.912ZM136.309 123.271V118.02H125.38C118.18 118.02 116.23 120.731 116.23 124.029C116.23 127.839 119.451 130.292 124.872 130.292C130.292 130.292 134.53 127.922 136.309 123.267V123.271Z" fill="#132D46"/>
<path d="M200.769 111.503V137.409H190.182V112.856C190.182 104.815 186.198 100.917 179.424 100.917C171.887 100.917 166.804 105.489 166.804 114.547V137.404H156.217V92.1971H166.295V98.0396C169.77 93.8921 175.274 91.689 181.882 91.689C192.723 91.689 200.773 97.8687 200.773 111.498L200.769 111.503Z" fill="#132D46"/>
<path d="M206.698 114.805C206.698 101.259 216.864 91.6936 231.176 91.6936C239.983 91.6936 247.017 95.3331 250.487 102.192L242.354 106.935C239.642 102.617 235.575 100.672 231.088 100.672C223.297 100.672 217.363 106.09 217.363 114.81C217.363 123.53 223.292 128.947 231.088 128.947C235.575 128.947 239.642 126.998 242.354 122.685L250.487 127.423C247.012 134.194 239.983 138.005 231.176 138.005C216.859 138.005 206.698 128.352 206.698 114.805Z" fill="#132D46"/>
<path d="M297.077 118.191H261.587C262.858 124.795 268.362 129.026 276.241 129.026C281.324 129.026 285.303 127.419 288.524 124.116L294.198 130.633C290.132 135.46 283.778 138 275.987 138C260.825 138 251 128.264 251 114.801C251 101.337 260.912 91.689 274.378 91.689C287.844 91.689 297.248 100.917 297.248 115.055C297.248 115.9 297.165 117.17 297.077 118.186V118.191ZM261.499 111.166H287.165C286.319 104.649 281.319 100.16 274.374 100.16C267.428 100.16 262.516 104.561 261.499 111.166Z" fill="#132D46"/>
<path d="M329.346 91.6936V101.767C328.413 101.596 327.651 101.513 326.888 101.513C318.843 101.513 313.759 106.252 313.759 115.484V137.413H303.173V92.2063H313.251V98.8109C316.301 94.0722 321.805 91.6983 329.346 91.6983V91.6936Z" fill="#132D46"/>
<path d="M330.109 130.975C330.109 126.74 333.242 123.95 337.054 123.95C340.867 123.95 344 126.744 344 130.975C344 135.206 340.867 138 337.054 138C333.242 138 330.109 135.035 330.109 130.975Z" fill="#00C48E"/>
<path d="M72.1217 91.6105C62.9857 88.6315 55.2084 84.1884 48.1843 78.452C36.5807 86.7148 22.1582 81.7174 13.2903 72.046C5.77176 63.8479 2.12108 53.9363 0.57763 43.1149C-0.785598 33.5821 0.198699 24.3402 4.28376 15.5602C6.75605 10.2441 10.4114 6.01346 16.1924 4.0136C15.8643 4.27686 15.5362 4.54936 15.2034 4.808C14.8615 5.07588 14.501 5.31605 14.1683 5.59317C8.88638 10.0086 6.32629 15.8973 5.45752 22.5112C5.037 25.7165 4.84291 29.1112 5.42517 32.2611C6.52038 38.173 12.1073 41.9325 18.05 41.3922C23.942 40.8564 28.5076 36.0854 28.8727 30.0858C28.8958 29.7347 28.9512 29.3837 29.0252 28.751C41.456 34.3487 51.4422 42.5653 59.1271 53.5438C67.043 64.8502 71.373 77.4036 72.1124 91.6059L72.1217 91.6105Z" fill="#132D46"/>
<path d="M28.7571 87.3059C35.4901 88.7239 41.65 88.0819 47.6482 85.0613C47.9209 85.5601 48.2028 86.0173 48.4292 86.4977C51.2296 92.488 54.0531 98.4692 56.8165 104.478C62.4173 116.657 57.5929 130.144 45.5595 136.019C44.2933 136.638 43.004 137.215 41.3127 138C44.3026 130.324 39.894 124.62 37.2507 118.537C35.5178 119.415 33.9559 120.472 32.2322 121.003C30.5732 121.511 28.7433 121.475 26.807 121.47C29.0159 118.925 28.7803 115.992 28.771 113.092C28.7479 105.231 28.7618 97.3745 28.7618 89.5136C28.7618 88.8439 28.7618 88.1742 28.7618 87.3059H28.7571Z" fill="#132D46"/>
<path d="M71.8814 27.6333C67.593 23.5088 62.7962 23.1901 57.8008 23.2548C48.956 23.3749 40.1066 23.2964 31.2572 23.2871C25.3468 23.2779 20.2543 18.9271 19.6258 13.3802C18.9003 6.99722 22.6249 1.60728 28.7341 0.240166C29.3902 0.0923699 30.0834 0.0461836 30.7581 0.0461836C37.0705 0.0369464 43.383 -0.0646634 49.6908 0.078514C61.775 0.346394 71.8398 10.7106 71.8814 22.7652C71.8814 24.1739 71.8814 25.5826 71.8814 27.6333Z" fill="#00C48E"/>
<path d="M14.4641 10.9692C16.2755 11.0524 17.7127 12.6181 17.6157 14.4055C17.514 16.2299 16.0121 17.56 14.136 17.4861C12.2921 17.4122 10.8919 15.8927 10.9936 14.073C11.0953 12.244 12.6156 10.8861 14.4641 10.9692Z" fill="#132D46"/>
</g>
<defs>
<clipPath id="clip0_102_474">
<rect width="344" height="138" fill="white"/>
</clipPath>
</defs>
</svg>
