<svg width="344" height="138" viewBox="0 0 344 138" fill="none" xmlns="http://www.w3.org/2000/svg">
<g clip-path="url(#clip0_247_401)">
<path d="M115.981 62.9059C113.439 64.9381 109.627 65.9542 105.814 65.9542C95.902 65.9542 90.2273 60.7028 90.2273 50.7127V28.9543H82.7734V20.4884H90.2273V10.1611H100.814V20.4884H112.926V28.9543H100.814V50.4587C100.814 54.8602 103.019 57.2342 107.08 57.2342C109.285 57.2342 111.401 56.643 113.009 55.3729L115.976 62.9059H115.981Z" fill="white"/>
<path d="M119.026 6.35061C119.026 2.79427 121.909 0 125.805 0C129.701 0 132.58 2.62338 132.58 6.09659C132.58 9.82382 129.784 12.7012 125.805 12.7012C121.826 12.7012 119.03 9.90696 119.03 6.35061H119.026ZM120.468 20.1511H131.055V65.3582H120.468V20.1511Z" fill="white"/>
<path d="M136.984 42.7547C136.984 29.2082 147.15 19.6431 161.467 19.6431C170.274 19.6431 177.308 23.2825 180.778 30.1412L172.645 34.8845C169.932 30.5661 165.87 28.6217 161.379 28.6217C153.588 28.6217 147.654 34.0393 147.654 42.7593C147.654 51.4793 153.583 56.8969 161.379 56.8969C165.866 56.8969 169.932 54.9479 172.645 50.6341L180.778 55.3728C177.303 62.1437 170.274 65.9541 161.467 65.9541C147.15 65.9541 136.984 56.3011 136.984 42.7547Z" fill="white"/>
<path d="M181.286 42.7547C181.286 29.2082 191.453 19.6431 205.344 19.6431C219.235 19.6431 229.484 29.2082 229.484 42.7547C229.484 56.3011 219.406 65.9541 205.344 65.9541C191.282 65.9541 181.286 56.3011 181.286 42.7547ZM218.81 42.7547C218.81 34.1178 213.052 28.6171 205.339 28.6171C197.626 28.6171 191.956 34.1225 191.956 42.7547C191.956 51.3869 197.714 56.8923 205.339 56.8923C212.964 56.8923 218.81 51.3869 218.81 42.7547Z" fill="white"/>
<path d="M88.79 74.5908H99.377V137.409H88.79V74.5908Z" fill="white"/>
<path d="M146.896 110.912V137.409H136.901V131.904C134.359 135.797 129.447 138 122.672 138C112.339 138 105.814 132.329 105.814 124.454C105.814 116.579 110.898 110.995 124.618 110.995H136.309V110.316C136.309 104.136 132.58 100.497 125.043 100.497C119.96 100.497 114.71 102.192 111.318 104.986L107.168 97.2824C111.998 93.5552 119.026 91.6938 126.314 91.6938C139.359 91.6938 146.896 97.8736 146.896 110.912ZM136.309 123.271V118.02H125.38C118.181 118.02 116.23 120.731 116.23 124.029C116.23 127.839 119.451 130.292 124.872 130.292C130.292 130.292 134.53 127.922 136.309 123.267V123.271Z" fill="white"/>
<path d="M200.769 111.503V137.409H190.182V112.856C190.182 104.815 186.199 100.917 179.424 100.917C171.887 100.917 166.804 105.489 166.804 114.547V137.404H156.217V92.197H166.295V98.0396C169.771 93.8921 175.274 91.689 181.882 91.689C192.724 91.689 200.774 97.8687 200.774 111.498L200.769 111.503Z" fill="white"/>
<path d="M206.698 114.805C206.698 101.259 216.864 91.6938 231.176 91.6938C239.984 91.6938 247.017 95.3333 250.487 102.192L242.354 106.935C239.642 102.617 235.575 100.672 231.088 100.672C223.297 100.672 217.363 106.09 217.363 114.81C217.363 123.53 223.292 128.948 231.088 128.948C235.575 128.948 239.642 126.999 242.354 122.685L250.487 127.424C247.012 134.194 239.984 138.005 231.176 138.005C216.86 138.005 206.698 128.352 206.698 114.805Z" fill="white"/>
<path d="M297.078 118.191H261.587C262.858 124.795 268.362 129.026 276.241 129.026C281.324 129.026 285.303 127.419 288.524 124.116L294.199 130.633C290.132 135.46 283.778 138 275.987 138C260.825 138 251 128.264 251 114.801C251 101.337 260.913 91.689 274.379 91.689C287.845 91.689 297.249 100.917 297.249 115.055C297.249 115.9 297.165 117.17 297.078 118.186V118.191ZM261.5 111.166H287.165C286.32 104.649 281.32 100.16 274.374 100.16C267.429 100.16 262.516 104.561 261.5 111.166Z" fill="white"/>
<path d="M329.347 91.6938V101.767C328.413 101.596 327.651 101.513 326.888 101.513C318.843 101.513 313.76 106.252 313.76 115.484V137.414H303.173V92.2065H313.251V98.8112C316.301 94.0724 321.805 91.6985 329.347 91.6985V91.6938Z" fill="white"/>
<path d="M330.109 130.975C330.109 126.74 333.242 123.95 337.054 123.95C340.867 123.95 344 126.744 344 130.975C344 135.206 340.867 138 337.054 138C333.242 138 330.109 135.035 330.109 130.975Z" fill="white"/>
<path d="M72.1215 91.6101C62.9855 88.6311 55.2082 84.188 48.1841 78.4516C36.5805 86.7143 22.158 81.717 13.2901 72.0456C5.77157 63.8475 2.1209 53.9359 0.577447 43.1145C-0.785781 33.5816 0.198516 24.3398 4.28358 15.5598C6.75587 10.2437 10.4112 6.01305 16.1922 4.01318C15.8641 4.27645 15.536 4.54894 15.2033 4.80759C14.8613 5.07547 14.5008 5.31564 14.1681 5.59275C8.8862 10.0082 6.32611 15.8969 5.45734 22.5108C5.03682 25.7161 4.84273 29.1108 5.42499 32.2607C6.52019 38.1726 12.1071 41.9321 18.0499 41.3917C23.9418 40.856 28.5074 36.0849 28.8725 30.0853C28.8956 29.7343 28.9511 29.3833 29.025 28.7506C41.4558 34.3483 51.442 42.5649 59.1269 53.5434C67.0429 64.8498 71.3728 77.4032 72.1122 91.6055L72.1215 91.6101Z" fill="white"/>
<path d="M28.7567 87.3057C35.4897 88.7236 41.6496 88.0816 47.6478 85.061C47.9205 85.5598 48.2024 86.0171 48.4288 86.4974C51.2292 92.4878 54.0527 98.4689 56.8161 104.478C62.4169 116.657 57.5925 130.143 45.5591 136.018C44.2929 136.637 43.0036 137.215 41.3123 138C44.3022 130.324 39.8936 124.62 37.2503 118.537C35.5174 119.414 33.9555 120.472 32.2318 121.003C30.5728 121.511 28.7429 121.474 26.8066 121.47C29.0155 118.925 28.7799 115.992 28.7706 113.091C28.7475 105.231 28.7614 97.3743 28.7614 89.5134C28.7614 88.8437 28.7614 88.174 28.7614 87.3057H28.7567Z" fill="white"/>
<path d="M71.881 27.6331C67.5926 23.5086 62.7959 23.19 57.8005 23.2546C48.9557 23.3747 40.1063 23.2962 31.2568 23.287C25.3464 23.2777 20.254 18.927 19.6255 13.38C18.9 6.99705 22.6246 1.60711 28.7337 0.239998C29.3899 0.0922021 30.0831 0.0460158 30.7578 0.0460158C37.0702 0.0367785 43.3826 -0.0648313 49.6904 0.0783462C61.7746 0.346227 71.8394 10.7104 71.881 22.765C71.881 24.1737 71.881 25.5824 71.881 27.6331Z" fill="white"/>
<path d="M14.4639 10.969C16.2754 11.0521 17.7126 12.6178 17.6155 14.4052C17.5139 16.2296 16.012 17.5597 14.1358 17.4858C12.292 17.4119 10.8918 15.8924 10.9935 14.0727C11.0951 12.2437 12.6155 10.8858 14.4639 10.969Z" fill="white"/>
</g>
<defs>
<clipPath id="clip0_247_401">
<rect width="344" height="138" fill="white"/>
</clipPath>
</defs>
</svg>
