<svg width="30" height="30" viewBox="0 0 30 30" fill="none" xmlns="http://www.w3.org/2000/svg">
<g clip-path="url(#clip0_31_113)">
<path d="M10.7435 14.9737C10.7435 11.1925 10.7756 7.41094 10.7291 3.63038C10.7081 1.93022 11.6911 0.097528 13.8752 0.0199798C14.9154 -0.0169946 15.9939 -0.0261564 16.9977 0.202889C18.3962 0.521589 19.2469 1.80031 19.2659 3.24984C19.28 4.31654 19.2695 5.38356 19.2695 6.45058C19.2695 13.1341 19.2695 19.818 19.2695 26.5015C19.2695 27.6487 18.9125 28.6519 17.9335 29.306C17.518 29.5835 16.9977 29.8073 16.5076 29.8479C15.5122 29.9307 14.4975 29.9522 13.5051 29.8547C11.8544 29.6924 10.7536 28.3705 10.7481 26.6465C10.7369 23.1319 10.7441 19.6177 10.7438 16.1032C10.7438 15.7266 10.7438 15.35 10.7438 14.9737H10.7435ZM11.785 14.9662C11.785 18.7611 11.7843 22.5564 11.7866 26.3513C11.7866 26.6016 11.7997 26.8529 11.8239 27.1019C11.9047 27.934 12.4652 28.7039 13.2826 28.7769C14.4255 28.879 15.5891 28.8594 16.7353 28.7769C17.4754 28.7239 17.9015 28.1284 18.122 27.4593C18.2313 27.1271 18.2215 26.7469 18.2218 26.3886C18.2267 18.8298 18.2257 11.2713 18.2248 3.71251C18.2248 3.50866 18.214 3.30514 18.2104 3.10129C18.1888 1.84841 17.3491 1.04708 16.0344 0.999966C15.3453 0.975098 14.6536 0.973135 13.9645 1.00062C13.0333 1.03759 12.2715 1.4057 11.9443 2.33203C11.8076 2.71879 11.7925 3.16281 11.7912 3.58098C11.7804 7.37593 11.785 11.1712 11.7847 14.9662H11.785Z" fill="black"/>
<path d="M21.4691 17.092C21.4691 13.9544 21.4668 10.8168 21.4701 7.67925C21.4721 5.65416 22.8022 4.31621 24.8253 4.30378C25.5625 4.2992 26.3039 4.26451 27.0365 4.3257C28.7822 4.47131 29.9696 5.83347 29.9925 7.67827C30.0076 8.88599 29.9958 10.0944 29.9958 11.3021C29.9958 16.3381 29.9984 21.3739 29.9938 26.4099C29.9929 27.5797 29.6591 28.6251 28.6477 29.3109C28.2698 29.5671 27.8009 29.8011 27.3595 29.8302C26.2692 29.9019 25.1551 29.9657 24.0799 29.8194C22.453 29.5982 21.4865 28.3542 21.4737 26.6929C21.4593 24.7634 21.4698 22.8335 21.4694 20.904C21.4694 19.6331 21.4694 18.3626 21.4694 17.0917L21.4691 17.092ZM28.9304 17.1607C28.9304 15.1536 28.9314 13.1462 28.9301 11.1391C28.9291 9.85321 28.9409 8.56729 28.917 7.28169C28.8987 6.30432 28.1916 5.4706 27.228 5.39796C26.2323 5.32303 25.2258 5.35509 24.2258 5.38716C23.5171 5.40974 23.0184 5.83773 22.7429 6.45647C22.5836 6.81509 22.5064 7.23981 22.5054 7.63507C22.4913 13.9233 22.4949 20.2116 22.4972 26.4999C22.4972 26.7342 22.5001 26.9734 22.545 27.2021C22.7056 28.0247 23.1591 28.6879 24.0033 28.7789C25.0991 28.8967 26.2175 28.8793 27.3209 28.8208C28.0335 28.7831 28.5191 28.275 28.7632 27.6242C28.8961 27.2705 28.9219 26.8608 28.9232 26.476C28.9353 23.3711 28.9301 20.2663 28.9301 17.1611L28.9304 17.1607Z" fill="black"/>
<path d="M8.54398 21.3869C8.54398 23.0488 8.54463 24.7107 8.54398 26.3723C8.54267 28.56 7.45241 29.7667 5.27321 29.9143C4.47908 29.9679 3.67219 29.9441 2.87871 29.8714C1.21192 29.7186 0.0516378 28.4605 0.031351 26.6903C-0.00922273 23.1633 -0.0102043 19.6354 0.0280789 16.1084C0.0493474 14.1661 1.43507 12.8599 3.37934 12.8648C4.29977 12.8671 5.24573 12.8262 6.13475 13.0166C7.69193 13.3501 8.52958 14.5136 8.54136 16.1192C8.55445 17.875 8.5443 19.6308 8.5443 21.3869H8.54398ZM7.51851 21.4203C7.51851 19.6485 7.52963 17.8763 7.51458 16.1045C7.50411 14.8794 6.85068 14.0349 5.73719 13.939C4.77291 13.8563 3.79129 13.8612 2.82636 13.9377C1.82117 14.0176 1.10295 14.834 1.0987 15.8431C1.083 19.5592 1.08659 23.2756 1.10197 26.992C1.10557 27.8722 1.72498 28.6598 2.59829 28.7929C3.42842 28.9196 4.2821 28.9261 5.12531 28.9225C6.72176 28.9156 7.51295 28.098 7.51785 26.5012C7.52309 24.8076 7.51916 23.1139 7.51851 21.4203Z" fill="black"/>
</g>
<defs>
<clipPath id="clip0_31_113">
<rect width="30" height="29.9437" fill="white"/>
</clipPath>
</defs>
</svg>
