<svg width="30" height="27" viewBox="0 0 30 27" fill="none" xmlns="http://www.w3.org/2000/svg">
<g clip-path="url(#clip0_31_64)">
<path d="M29.1492 14.8016C28.9593 10.1591 27.063 6.37219 23.2998 3.57818C18.5259 0.0334995 12.1648 0.104545 7.68003 2.93654C3.31453 5.69302 1.11301 9.69927 0.856528 14.7949C0.898083 14.8271 0.939191 14.8592 0.980746 14.8914C1.07637 14.8052 1.18003 14.727 1.26582 14.6318C2.11882 13.6823 3.22203 13.2028 4.45751 13.1591C5.94142 13.1063 7.39674 13.9714 7.43651 15.9843C7.48477 18.4388 7.48119 20.8954 7.43651 23.3503C7.39987 25.3776 5.76001 26.5773 3.77163 26.109C1.37753 25.5456 0.0236411 23.8387 0.0294499 21.3798C0.0352586 18.9245 -0.0670649 16.4629 0.0790477 14.0156C0.453489 7.75245 4.56251 2.58757 10.4164 0.735912C17.3847 -1.46829 24.474 1.3999 28.1139 7.74261C29.3449 9.88783 29.9227 12.2243 29.974 14.6796C30.0223 16.9897 29.9906 19.3011 29.983 21.6121C29.974 24.2659 27.8083 26.3163 25.155 26.1966C23.9365 26.1416 22.853 25.1921 22.642 23.9812C22.5956 23.7136 22.5701 23.4392 22.5697 23.1675C22.5643 20.8244 22.5576 18.4812 22.5692 16.1385C22.579 14.1197 24.0317 12.9088 26.0259 13.2163C27.0786 13.3785 27.9803 13.8154 28.7082 14.5956C28.8034 14.6979 28.8686 14.828 28.9477 14.945C29.0152 14.8977 29.0826 14.8499 29.1501 14.8025L29.1492 14.8016ZM6.6005 19.6948C6.6005 18.4911 6.6005 17.2873 6.6005 16.084C6.6005 16.0518 6.6005 16.0196 6.5996 15.9879C6.56609 14.7828 5.70237 13.9146 4.60407 13.983C2.4803 14.1148 0.898529 15.7672 0.878869 17.8896C0.867698 19.109 0.866805 20.3293 0.878869 21.5487C0.897189 23.4379 2.28191 25.0268 4.15143 25.3244C5.6425 25.5621 6.59335 24.7623 6.5996 23.2578C6.60452 22.0701 6.6005 20.8825 6.6005 19.6948ZM23.4168 19.651C23.4168 20.9026 23.4043 22.1546 23.4204 23.4062C23.4361 24.6247 24.1841 25.3499 25.3865 25.349C27.3681 25.3476 29.092 23.6559 29.134 21.6394C29.1595 20.4205 29.1452 19.2002 29.1385 17.9808C29.1273 15.9486 27.9151 14.4799 25.9249 14.0742C24.4446 13.7721 23.4271 14.5853 23.4177 16.0885C23.4101 17.2761 23.4164 18.4633 23.4168 19.651Z" fill="black"/>
</g>
<defs>
<clipPath id="clip0_31_64">
<rect width="30" height="26.21" fill="white"/>
</clipPath>
</defs>
</svg>
