<svg width="101" height="80" viewBox="0 0 101 80" fill="none" xmlns="http://www.w3.org/2000/svg">
<g clip-path="url(#clip0_116_245)">
<path d="M25.6928 9.89125C25.3977 5.33503 29.0383 0.271474 35.2598 0.00865666C38.9425 -0.146449 42.6165 1.75036 44.5133 5.9716C46.0138 9.31068 45.4149 13.8443 42.9009 16.4175C42.134 17.2028 42.0467 17.8253 42.4797 18.7646C44.1622 22.4171 45.7983 26.0922 47.4323 29.7674C47.7533 30.4901 48.1088 30.768 48.9996 30.5752C54.998 29.2784 60.3406 30.6022 64.9894 34.6823C65.305 34.9591 66.1807 35.0248 66.5157 34.79C71.2755 31.4391 75.9793 28.0095 80.7154 24.6241C81.4414 24.105 81.3304 23.5072 81.1452 22.8103C80.0616 18.7355 81.0989 15.2327 84.2441 12.4785C87.1577 9.9268 90.5937 9.35054 94.1924 10.7346C97.5842 12.0401 99.648 14.5875 100.342 18.2088C101.358 23.5125 97.6984 29.2051 91.1969 29.8546C89.1956 30.055 87.2719 29.5423 85.5668 28.4468C84.8171 27.9654 84.2591 27.9309 83.503 28.4813C78.9338 31.8042 74.3399 35.0948 69.7212 38.3499C68.7723 39.0188 68.503 39.5423 69.0394 40.7389C70.8662 44.8137 70.9599 49.0296 69.4433 53.2325C69.1514 54.0425 69.2225 54.4421 69.9754 54.8837C74.146 57.3331 78.2983 59.8126 82.4323 62.3223C83.2423 62.8146 83.8207 62.8146 84.607 62.2049C87.7878 59.7405 92.3203 59.5692 95.836 61.6836C99.2753 63.7517 101 67.7219 100.313 71.9852C99.7201 75.6539 96.52 78.91 92.6553 79.776C85.9179 81.284 79.5467 74.9882 80.9965 68.2228C81.1613 67.4516 80.9427 67.0175 80.3093 66.6405C76.0429 64.0996 71.7742 61.5608 67.5314 58.9811C66.7064 58.4792 66.2906 58.924 65.7951 59.4389C62.1771 63.1916 57.7059 64.916 52.5433 64.9128C44.913 64.9085 37.6456 59.0026 36.0999 51.5048C35.8533 50.307 35.3987 49.8966 34.16 49.9182C29.9614 49.9947 25.7596 49.985 21.5609 49.9225C20.4472 49.9063 19.9183 50.2467 19.5004 51.3109C17.6962 55.9048 12.8772 58.2853 7.97305 57.1198C3.51162 56.0589 0.183309 51.4735 0.513985 46.8473C0.853278 42.0994 4.35823 38.4845 9.41424 37.6713C13.4481 37.0218 17.8276 39.5498 19.4638 43.6687C19.9571 44.9117 20.598 45.2036 21.8302 45.1821C26.0289 45.1088 30.2307 45.1293 34.4293 45.1735C35.3675 45.1832 35.836 44.9009 36.0181 43.9552C36.8453 39.6424 39.1019 36.1935 42.5734 33.5578C43.3791 32.946 43.5041 32.4753 43.0635 31.5554C41.3283 27.9287 39.6738 24.2622 38.0172 20.5978C37.7027 19.902 37.302 19.7265 36.5211 19.7825C30.3729 20.2295 25.3847 15.3663 25.6906 9.89125H25.6928ZM65.6045 47.5356C65.6099 40.5623 60.0077 34.8579 53.1454 34.8525C46.2518 34.8471 40.3869 40.5569 40.361 47.2932C40.3363 53.5869 45.0874 60.0464 52.9634 60.2004C59.8914 60.3361 65.5991 54.5078 65.6045 47.5356ZM40.612 9.88587C40.6066 6.89685 38.3921 4.72537 35.3675 4.74476C32.5573 4.76307 30.3826 6.97764 30.3546 9.84709C30.3266 12.7672 32.5401 15.0528 35.3923 15.0517C38.4287 15.0496 40.6163 12.8846 40.612 9.88694V9.88587ZM95.6874 20.0054C95.6917 16.7913 93.8175 14.8902 90.6379 14.8826C87.5659 14.8751 85.5463 16.8484 85.5355 19.8686C85.5248 22.9266 87.6219 25.0625 90.6368 25.0625C93.6592 25.0625 95.6831 23.0364 95.6874 20.0054ZM95.6885 70.1896C95.7036 66.983 93.8175 65.0259 90.6874 65.0022C87.6488 64.9785 85.5614 66.9895 85.5377 69.9645C85.5129 73.0752 87.5325 75.1487 90.5905 75.1519C93.7098 75.1552 95.6734 73.2433 95.6885 70.1896ZM15.4407 47.5754C15.4472 44.5444 13.4017 42.3632 10.4989 42.3072C7.53359 42.2502 5.29748 44.4712 5.28779 47.4807C5.2781 50.4988 7.34725 52.5959 10.3373 52.6002C13.4351 52.6045 15.4332 50.6366 15.4407 47.5754Z" fill="#00C48E"/>
</g>
<defs>
<clipPath id="clip0_116_245">
<rect width="100.017" height="80" fill="white" transform="translate(0.491394)"/>
</clipPath>
</defs>
</svg>
