<svg width="14" height="15" viewBox="0 0 14 15" fill="none" xmlns="http://www.w3.org/2000/svg">
<g clip-path="url(#clip0_362_877)">
<path d="M8.1249 9.11205C8.39589 8.78535 8.66589 8.46668 8.92785 8.14198C9.34689 7.62207 9.79303 7.49611 10.4108 7.75656C11.3874 8.16808 12.362 8.58561 13.3331 9.01018C13.8851 9.25156 14.0949 9.72179 13.9619 10.326C13.7486 11.2961 13.5463 12.2692 13.3371 13.2402C13.2051 13.8525 12.8317 14.1626 12.2039 14.1571C9.18329 14.1315 6.52602 13.1213 4.2376 11.1606C2.46156 9.63899 1.23003 7.74402 0.530962 5.51482C0.171641 4.3691 0.00402408 3.18575 9.30886e-06 1.98283C-0.00199808 1.352 0.320689 0.960063 0.932439 0.830085C1.93714 0.616298 2.94033 0.398497 3.94602 0.191737C4.4549 0.0868507 4.95373 0.357346 5.16601 0.847148C5.59359 1.83528 6.01664 2.82593 6.43568 3.81808C6.65449 4.33648 6.55161 4.77911 6.12554 5.14897C5.82293 5.41194 5.50777 5.66085 5.19813 5.91629C5.10479 5.99358 5.02098 6.06283 5.10981 6.20686C5.85204 7.41029 6.81658 8.38688 8.04561 9.09499C8.05916 9.10302 8.07722 9.10302 8.1244 9.11356L8.1249 9.11205ZM11.7683 13.324C11.9023 13.324 12.0368 13.315 12.1698 13.3261C12.3986 13.3451 12.5055 13.2327 12.5502 13.0214C12.7519 12.0664 12.9582 11.1119 13.1629 10.1574C13.2016 9.97824 13.1519 9.85779 12.9692 9.78051C12.0007 9.3695 11.0346 8.95246 10.0696 8.53292C9.87132 8.4466 9.72579 8.47521 9.59079 8.65286C9.35342 8.96551 9.10049 9.26662 8.85559 9.57375C8.51333 10.0023 8.08927 10.0977 7.61352 9.82216C6.24599 9.03125 5.15899 7.95329 4.36356 6.58776C4.07249 6.08793 4.14827 5.69147 4.58588 5.32412C4.89301 5.06617 5.21068 4.82076 5.51981 4.56532C5.63674 4.46897 5.74815 4.37011 5.66786 4.18442C5.23677 3.18776 4.81221 2.18858 4.38313 1.19141C4.31087 1.0233 4.19193 0.953539 4.00073 1.00824C3.80852 1.06344 3.61029 1.09556 3.41457 1.13772C2.65628 1.30132 1.89849 1.47044 1.1387 1.62601C0.904838 1.67419 0.812498 1.79614 0.835081 2.02799C0.897812 2.6839 0.909354 3.34935 1.02578 3.99573C1.38109 5.96899 2.22118 7.72796 3.52247 9.25307C5.68492 11.7874 8.44859 13.1238 11.7683 13.3245V13.324Z" fill="#132D46"/>
</g>
<defs>
<clipPath id="clip0_362_877">
<rect width="14" height="13.9875" fill="white" transform="translate(0 0.169128)"/>
</clipPath>
</defs>
</svg>
