<svg width="81" height="80" viewBox="0 0 81 80" fill="none" xmlns="http://www.w3.org/2000/svg">
<g clip-path="url(#clip0_116_241)">
<path d="M35.4553 61.294C34.0508 61.8649 32.906 62.3264 31.7642 62.7959C29.7511 63.6234 27.9389 63.1917 26.4429 61.7267C23.7515 59.0889 21.1207 56.3875 18.5128 53.6672C17.0278 52.1185 16.804 50.2705 17.5828 48.3041C18.0015 47.2469 18.4869 46.2164 19.028 44.9781C18.2551 44.9264 17.719 44.8597 17.1819 44.8588C12.5947 44.8508 8.00748 44.8518 3.42124 44.8558C0.716847 44.8578 -0.229045 43.4026 0.959537 40.9528C2.62156 37.5253 4.34327 34.1267 6.03215 30.7131C6.84874 29.063 7.61758 27.3881 8.46501 25.7539C10.3727 22.0738 13.3924 20.1691 17.5698 20.1691C21.7284 20.1691 25.8869 20.1492 30.0445 20.184C31.1097 20.1929 31.8119 19.9264 32.4614 18.9447C37.6643 11.0802 44.4288 5.1462 53.5366 2.14242C59.4447 0.191952 65.4781 -0.396868 71.6478 0.254614C72.9239 0.388889 74.208 0.496308 75.4692 0.726068C78.1079 1.20647 79.4278 2.44081 79.8346 5.07459C80.6621 10.4376 80.8889 15.8484 79.8615 21.1916C78.1815 29.9284 74.2975 37.5253 67.4793 43.4235C65.6711 44.988 63.7455 46.4263 61.795 47.8118C60.8402 48.4901 60.3309 49.1565 60.3598 50.4118C60.4493 54.3097 60.3558 58.2126 60.4016 62.1126C60.4573 66.8768 58.4551 70.3024 54.1036 72.3801C49.3532 74.6479 44.6506 77.0141 39.9261 79.3346C39.6576 79.4669 39.3781 79.5783 39.1016 79.6946C37.1262 80.5331 35.6253 79.6081 35.6144 77.4826C35.5885 72.6825 35.6094 67.8814 35.5985 63.0813C35.5975 62.5423 35.5149 62.0032 35.4553 61.296V61.294ZM75.7417 12.5572C75.6243 11.2085 75.3986 8.99541 75.2563 6.77739C75.1877 5.70916 74.6974 5.25262 73.657 5.21682C70.7954 5.11835 67.9339 4.87964 65.0733 4.89257C58.9215 4.92141 53.2671 6.82016 48.0612 9.97612C42.5897 13.2932 38.6132 18.1032 35.3031 23.4921C30.1817 31.8301 26.3266 40.8017 22.3172 49.6917C22.161 50.0378 22.4067 50.7708 22.7111 51.0871C24.8485 53.3101 27.0666 55.4565 29.2219 57.6626C29.763 58.2156 30.2295 58.2843 30.9168 57.9491C32.1451 57.3493 33.4193 56.845 34.6735 56.298C42.718 52.7879 50.697 49.1446 58.1437 44.45C69.5511 37.2578 75.6353 27.0499 75.7427 12.5572H75.7417ZM40.511 73.7338C44.9032 71.5178 49.0459 69.4848 53.1288 67.3364C54.5601 66.5834 55.4443 65.2357 55.496 63.5846C55.6104 59.9075 55.6154 56.2264 55.6532 52.5462C55.6552 52.3523 55.5448 52.1573 55.4622 51.8798C55.1211 51.9922 54.8366 52.0519 54.584 52.1752C50.126 54.3505 45.6592 56.5098 41.2351 58.7497C40.7974 58.9715 40.3648 59.6966 40.3558 60.1959C40.2842 64.2192 40.311 68.2455 40.322 72.2697C40.323 72.6745 40.4234 73.0784 40.512 73.7338H40.511ZM6.94621 39.9125C7.23465 40.0099 7.38882 40.1084 7.54299 40.1084C11.8666 40.1193 16.1913 40.1422 20.5149 40.0865C20.8869 40.0815 21.4041 39.624 21.5961 39.2451C22.9945 36.5019 24.3114 33.7179 25.684 30.9618C26.6319 29.0601 27.6285 27.1822 28.6868 25.1323C28.0035 25.0537 27.5092 24.9493 27.0138 24.9463C23.9743 24.9314 20.9337 24.9771 17.8951 24.9274C15.4274 24.8876 13.7664 26.0046 12.6932 28.1758C10.9536 31.6988 9.17318 35.2009 7.41866 38.7169C7.23664 39.0819 7.1153 39.4778 6.94621 39.9115V39.9125Z" fill="#00C48E"/>
<path d="M66.6438 22.4696C66.6389 27.2081 62.716 31.1309 57.9926 31.1189C53.1467 31.107 49.386 27.2598 49.399 22.3254C49.4109 17.7173 53.4252 13.7826 58.0791 13.8174C62.6832 13.8522 66.6488 17.8576 66.6438 22.4696ZM54.1861 22.412C54.1781 24.6757 55.7894 26.3129 58.0294 26.3179C60.1459 26.3228 61.8915 24.5832 61.8656 22.4935C61.8398 20.36 60.1579 18.6463 58.0562 18.6115C55.9884 18.5767 54.1931 20.3392 54.1861 22.412Z" fill="#00C48E"/>
</g>
<defs>
<clipPath id="clip0_116_241">
<rect width="80.0915" height="80" fill="white" transform="translate(0.454224)"/>
</clipPath>
</defs>
</svg>
