<svg width="20" height="20" viewBox="0 0 20 20" fill="none" xmlns="http://www.w3.org/2000/svg">
<path d="M16.2244 7.93021C16.2626 9.76881 15.774 11.4456 14.6675 12.923C14.5131 13.1289 14.5395 13.2372 14.7073 13.4043C16.3018 14.9915 17.8914 16.5834 19.475 18.1814C19.6527 18.3607 19.8149 18.5707 19.9283 18.7947C20.0864 19.1074 19.969 19.5362 19.7145 19.7661C19.4496 20.0057 18.9957 20.0785 18.6959 19.9024C18.5229 19.8007 18.3611 19.67 18.2185 19.5278C16.6326 17.9459 15.0468 16.3637 13.4743 14.7684C13.2469 14.5378 13.1003 14.5304 12.8403 14.7236C11.3088 15.8606 9.56173 16.3519 7.67984 16.2252C4.84023 16.0342 2.6185 14.7143 1.14449 12.2646C-1.03717 8.6387 -0.00738242 3.88461 3.4473 1.45264C4.65509 0.602258 6.00608 0.126817 7.4804 0.0238252C9.80279 -0.138285 11.8443 0.531004 13.5824 2.10201C15.3528 3.70227 16.1642 5.78948 16.2241 7.93021H16.2244ZM8.12437 1.81513C4.67497 1.77779 1.83878 4.58843 1.81704 8.05094C1.79529 11.5455 4.50629 14.4255 8.13027 14.4255C11.6865 14.4255 14.418 11.5819 14.4205 8.1281C14.4233 4.60866 11.6365 1.81513 8.12406 1.81513H8.12437Z" fill="#F8FBFF"/>
</svg>
