<svg width="20" height="20" viewBox="0 0 20 20" fill="none" xmlns="http://www.w3.org/2000/svg">
<path d="M16.2353 7.99483C16.2472 9.83294 15.7292 11.6062 14.4972 13.1363C14.3143 13.3633 14.3527 13.4838 14.5363 13.667C15.9886 15.1154 17.4341 16.5708 18.8793 18.0265C19.1898 18.3395 19.4921 18.6602 19.7938 18.9819C20.0581 19.2638 20.0669 19.5584 19.8276 19.803C19.5785 20.0574 19.2595 20.0546 18.9776 19.7755C17.3513 18.164 15.7271 16.5507 14.1054 14.9346C13.4594 14.2911 13.4703 14.2978 12.7268 14.8018C11.0772 15.9199 9.26165 16.3914 7.27236 16.1705C4.39573 15.8505 2.27712 14.3736 0.929547 11.8546C-0.0377855 10.0458 -0.249224 8.08293 0.291002 6.09224C1.05535 3.27657 2.82862 1.32323 5.60869 0.438008C8.53958 -0.495494 11.2393 0.0627041 13.5687 2.11683C15.2972 3.64095 16.1376 5.64081 16.2353 7.99483ZM8.14067 1.21857C4.38939 1.21857 1.26186 4.31333 1.20548 7.97616C1.14662 11.7958 4.21073 15.0054 8.08957 15.0555C11.8743 15.1041 15.0558 11.9244 15.0568 8.16997C15.0582 4.33165 11.9607 1.21857 8.14067 1.21857Z" fill="#132D46"/>
</svg>
