<svg width="16" height="18" viewBox="0 0 16 18" fill="none" xmlns="http://www.w3.org/2000/svg">
<g clip-path="url(#clip0_259_1024)">
<path d="M2.33946 3.55089C2.7358 3.6466 3.29657 3.80039 3.86592 3.90796C4.05489 3.94355 4.27576 3.89038 4.46513 3.82739C5.25945 3.56357 5.56335 2.94718 5.75927 2.17004C6.10039 0.814962 6.20551 0.748292 7.59126 0.637039C8.1189 0.594501 8.66167 0.650537 9.18889 0.723342C9.63595 0.785104 9.92185 1.098 10.0552 1.52993C10.2094 2.02975 10.3386 2.53734 10.5088 3.03103C10.5616 3.184 10.6908 3.33411 10.8246 3.43105C11.054 3.59752 11.306 3.74067 11.5653 3.85479C11.717 3.92146 11.9109 3.96073 12.0696 3.92964C12.5347 3.83802 12.9919 3.7055 13.4517 3.5877C14.0386 3.43718 14.5311 3.57093 14.8526 4.08711C15.2526 4.72886 15.6093 5.4017 15.9283 6.08762C16.1283 6.51709 15.8784 6.89912 15.5945 7.21733C15.2702 7.58095 14.9017 7.90571 14.5892 8.27874C14.4681 8.42353 14.4337 8.65013 14.3887 8.84605C14.3634 8.9573 14.4252 9.08941 14.3973 9.19944C14.2636 9.72666 14.5315 10.0747 14.8824 10.4085C15.1663 10.6785 15.4297 10.9709 15.6866 11.2674C15.97 11.5951 16.1005 11.9763 15.8907 12.3849C15.5655 13.0176 15.2326 13.6487 14.8636 14.2561C14.547 14.7776 14.0325 14.9024 13.4611 14.7834C13.0083 14.6889 12.567 14.5339 12.1113 14.4606C11.9007 14.4267 11.661 14.4979 11.4479 14.5649C10.6732 14.8095 10.427 15.4296 10.238 16.1593C9.87073 17.5778 9.64699 17.7136 8.17003 17.7025C7.74301 17.6993 7.3164 17.662 6.89021 17.6334C6.32944 17.5954 6.0599 17.224 5.90692 16.7401C5.76377 16.2869 5.6611 15.8198 5.49422 15.3764C5.42265 15.1858 5.25536 15.0132 5.09339 14.8783C4.51462 14.3948 3.89619 14.4022 3.17631 14.6099C1.66131 15.048 1.39217 14.8901 0.583135 13.4242C0.422391 13.1334 0.293141 12.825 0.150393 12.5244C-0.0802934 12.0384 0.00641852 11.5975 0.356539 11.2061C0.705432 10.8167 1.08377 10.4519 1.41181 10.0461C1.53001 9.90009 1.55006 9.66899 1.59587 9.47225C1.61673 9.38309 1.56805 9.27797 1.58973 9.18921C1.72757 8.62477 1.44453 8.24356 1.05923 7.89262C0.822002 7.67666 0.592543 7.44925 0.382307 7.20711C0.0317777 6.80341 -0.143691 6.35799 0.148348 5.83812C0.484562 5.23932 0.807277 4.63193 1.15985 4.04294C1.37949 3.67605 1.74025 3.53207 2.33987 3.5513L2.33946 3.55089ZM2.16154 4.5493C2.09241 4.60452 1.97421 4.66342 1.90795 4.75831C1.73084 5.01068 1.56274 5.27163 1.41467 5.5424C0.987246 6.32486 0.98561 6.33344 1.58073 6.97888C2.48466 7.95889 2.70758 7.86604 2.64418 9.53647C2.627 9.98803 2.53088 10.3725 2.21062 10.6997C1.85314 11.065 1.50179 11.4372 1.16803 11.8233C1.09441 11.9088 1.04001 12.1006 1.08541 12.1849C1.34964 12.6757 1.63472 13.1567 1.9423 13.6213C2.00284 13.7126 2.20449 13.7739 2.32269 13.7518C2.7538 13.67 3.17672 13.5461 3.60333 13.4401C4.08393 13.3207 4.5408 13.3457 4.96945 13.6307C5.18623 13.7751 5.42101 13.8937 5.65374 14.0132C6.03331 14.2075 6.29426 14.502 6.41656 14.9093C6.55645 15.3752 6.69551 15.8423 6.81454 16.3139C6.87794 16.5655 7.02068 16.673 7.26855 16.6734C7.69679 16.6743 8.12544 16.6636 8.55287 16.6845C8.9398 16.7033 9.15781 16.5585 9.21425 16.1626C9.24247 15.9642 9.33696 15.7761 9.3705 15.5781C9.51406 14.7355 9.89363 14.0844 10.7501 13.7927C10.8712 13.7514 10.9792 13.6672 11.088 13.5952C11.4733 13.3395 11.8933 13.3313 12.3228 13.4295C12.7625 13.5301 13.1961 13.6631 13.639 13.7445C13.7674 13.7682 13.9859 13.7081 14.0489 13.6119C14.3409 13.1661 14.5928 12.6941 14.8579 12.2307C14.961 12.0503 14.9246 11.9043 14.7745 11.755C14.4881 11.4703 14.2345 11.1517 13.9396 10.8764C13.4955 10.4621 13.3024 9.97985 13.3993 9.37245C13.4308 9.17653 13.403 8.96834 13.3846 8.76752C13.3445 8.32496 13.4783 7.94907 13.7854 7.63003C14.1319 7.2701 14.4689 6.90116 14.8219 6.54777C14.9634 6.40625 14.9888 6.277 14.889 6.10767C14.6599 5.71869 14.4276 5.33135 14.2137 4.93419C14.0317 4.59593 13.8051 4.54194 13.4255 4.63397C11.4692 5.11007 11.9661 5.20169 10.373 4.35952C9.92104 4.12065 9.63718 3.77299 9.50874 3.28544C9.40281 2.88337 9.28133 2.48499 9.18807 2.08006C9.12386 1.80111 8.96638 1.6784 8.68907 1.67799C8.37985 1.67799 8.07104 1.66654 7.76182 1.66613C6.69797 1.66531 6.86975 1.73485 6.70206 2.49358C6.48896 3.45763 6.14088 4.28385 5.1167 4.62865C5.08398 4.6397 5.05453 4.66342 5.02549 4.68428C4.63528 4.96119 4.21277 5.04913 3.74321 4.92806C3.23726 4.79758 2.72762 4.68346 2.16072 4.54808L2.16154 4.5493Z" fill="#132D46"/>
<path d="M7.97587 12.0879C6.40238 12.0859 5.07388 10.7455 5.07715 9.16383C5.08043 7.5797 6.4081 6.25448 7.99223 6.25366C9.57432 6.25284 10.904 7.57929 10.9085 9.1622C10.913 10.7582 9.578 12.09 7.97587 12.0879ZM7.9816 11.078C8.9931 11.0858 9.91462 10.1725 9.91094 9.16547C9.90767 8.17155 9.00823 7.27744 8.00205 7.26762C7.00404 7.25821 6.09847 8.13924 6.07271 9.14461C6.04735 10.1393 6.966 11.0703 7.98119 11.078H7.9816Z" fill="#132D46"/>
</g>
<defs>
<clipPath id="clip0_259_1024">
<rect width="16" height="17.081" fill="white" transform="translate(0 0.622314)"/>
</clipPath>
</defs>
</svg>
