<svg width="30" height="18" viewBox="0 0 30 18" fill="none" xmlns="http://www.w3.org/2000/svg">
<g clip-path="url(#clip0_31_224)">
<path d="M15.0046 17.9945C11.0627 17.9945 7.12086 17.9945 3.17901 17.9945C1.30966 17.9945 0.015197 16.6932 0.015197 14.814C0.015197 10.975 0.0493716 7.13529 0.00038798 3.29672C-0.0231545 1.48167 1.22612 -0.00492408 3.29976 1.22581e-05C9.87382 0.015201 16.4475 0.00570803 23.0216 0.00570803C24.2928 0.00570803 25.5641 -0.00796182 26.8351 0.00950521C28.1314 0.027352 29.157 0.549085 29.7027 1.76798C29.8857 2.17656 29.9814 2.65842 29.9837 3.10762C30.0049 7.01075 30.0019 10.9142 29.9936 14.8174C29.9894 16.7296 28.7006 17.9949 26.7914 17.9945C22.8624 17.9941 18.9335 17.9945 15.0046 17.9945ZM15.3486 9.00123C15.3486 11.5955 15.3486 14.1897 15.3486 16.7839C15.3486 17.1376 15.5225 17.3148 15.8703 17.3155C19.4921 17.3155 23.1138 17.3167 26.7356 17.3155C28.3703 17.3148 29.3169 16.3655 29.3177 14.727C29.3188 10.8998 29.3192 7.07264 29.3177 3.24546C29.3169 1.6533 28.3676 0.68958 26.7823 0.687682C23.1222 0.682745 19.4617 0.69034 15.8016 0.679707C15.4481 0.678568 15.3395 0.78337 15.3414 1.14182C15.3554 3.76188 15.349 6.38155 15.349 9.00161L15.3486 9.00123ZM14.6826 8.99857C14.6826 6.39256 14.6753 3.78656 14.6902 1.18056C14.6924 0.787927 14.5649 0.677429 14.1806 0.678568C10.5349 0.690719 6.88885 0.687302 3.24318 0.685024C1.69811 0.684264 0.682741 1.67343 0.688817 3.22534C0.704005 7.08935 0.692234 10.9534 0.694513 14.8177C0.695272 16.3249 1.66621 17.3106 3.16951 17.3136C6.84101 17.3205 10.5125 17.3163 14.184 17.3155C14.6674 17.3155 14.6818 17.3 14.6822 16.8166C14.6829 14.2106 14.6826 11.6046 14.6822 8.99857H14.6826Z" fill="black"/>
<path d="M25.0094 6.75178C24.8267 6.73166 24.6688 6.69938 24.5108 6.699C22.7132 6.69559 20.9157 6.69673 19.1181 6.69673C19.041 6.69673 18.9639 6.69407 18.8868 6.69748C18.6537 6.70774 18.4486 6.62838 18.4482 6.3789C18.4482 6.11879 18.6529 6.01703 18.902 6.01741C19.4283 6.01741 19.955 6.01741 20.4813 6.01741C20.9308 6.01741 21.3804 6.00792 21.8293 6.02007C22.081 6.0269 22.174 5.93083 22.1569 5.6806C22.141 5.45087 22.1137 5.20671 22.1733 4.99179C22.22 4.82434 22.3715 4.59613 22.5139 4.56499C22.7607 4.51069 22.8427 4.74308 22.8526 4.96977C22.8621 5.18735 22.8963 5.40682 22.8792 5.62212C22.8553 5.92514 22.9627 6.0288 23.2699 6.02311C24.1554 6.00678 25.0417 6.01703 25.9275 6.01817C26.043 6.01817 26.1869 5.98437 26.267 6.03981C26.3973 6.12981 26.485 6.28055 26.5909 6.40586C26.4736 6.50269 26.3464 6.69141 26.2401 6.6804C25.8311 6.63825 25.7122 6.85583 25.6196 7.1915C25.203 8.70088 24.4725 10.0386 23.3918 11.1801C23.1013 11.4865 23.1165 11.5556 23.4974 11.7793C24.0609 12.11 24.6266 12.4369 25.1928 12.7631C25.3967 12.8804 25.5824 13.0213 25.4354 13.2784C25.2938 13.5263 25.0557 13.4675 24.8586 13.357C24.1767 12.9746 23.497 12.588 22.8306 12.1799C22.6058 12.0424 22.4588 12.0208 22.2169 12.1772C21.5828 12.5869 20.9194 12.9518 20.258 13.3171C20.1217 13.3923 19.9421 13.4219 19.786 13.4132C19.7154 13.4094 19.5855 13.2442 19.6003 13.18C19.6341 13.0365 19.7093 12.8569 19.8251 12.7863C20.4045 12.4331 20.9969 12.1001 21.5961 11.7819C21.9147 11.6126 21.8923 11.461 21.6542 11.2385C21.1761 10.792 20.711 10.3318 20.2424 9.87534C20.16 9.79522 20.0377 9.71434 20.0203 9.6179C19.9914 9.45993 19.9739 9.22717 20.0628 9.14173C20.1437 9.06427 20.414 9.08211 20.5276 9.16185C20.7657 9.32893 20.9563 9.56398 21.1659 9.77168C21.5304 10.1328 21.8938 10.4954 22.2599 10.855C22.4193 11.0118 22.5682 11.0434 22.7516 10.8615C23.8945 9.72763 24.5883 8.3504 25.0086 6.7514L25.0094 6.75178Z" fill="black"/>
<path d="M7.48537 11.2324C6.86909 11.2324 6.25205 11.2465 5.63614 11.2263C5.34186 11.2169 5.19681 11.33 5.09619 11.5977C4.90671 12.1008 4.67888 12.5892 4.48028 13.0892C4.3827 13.3349 4.24752 13.513 3.96652 13.3915C3.66769 13.262 3.8116 13.0148 3.88678 12.8276C4.38383 11.5901 4.89455 10.3576 5.40072 9.12347C5.97485 7.72383 6.54253 6.32115 7.13071 4.92758C7.19527 4.77494 7.37411 4.67089 7.50018 4.54407C7.61751 4.66292 7.78535 4.76127 7.84458 4.90404C8.73388 7.04641 9.60951 9.19409 10.487 11.341C10.7004 11.8628 10.9279 12.3803 11.1079 12.9134C11.1538 13.0501 11.0938 13.3307 10.9936 13.3869C10.7623 13.5164 10.6032 13.3604 10.5091 13.1162C10.3105 12.6021 10.0815 12.0997 9.88101 11.5859C9.77925 11.3251 9.62888 11.2142 9.3346 11.2252C8.71907 11.2487 8.10203 11.2324 7.48537 11.2324ZM7.54802 5.91789C7.50474 5.92548 7.46107 5.93346 7.41778 5.94105C6.7958 7.44587 6.17383 8.9507 5.52679 10.5163H9.41206C8.77451 8.94386 8.16127 7.43068 7.54802 5.91751V5.91789Z" fill="black"/>
</g>
<defs>
<clipPath id="clip0_31_224">
<rect width="30" height="17.9945" fill="white"/>
</clipPath>
</defs>
</svg>
