<svg width="21" height="13" viewBox="0 0 21 13" fill="none" xmlns="http://www.w3.org/2000/svg">
<g clip-path="url(#clip0_259_957)">
<path d="M10.0046 12.1629C7.39942 12.1629 4.79419 12.1629 2.18897 12.1629C0.849244 12.1629 0.000586697 11.3122 0 9.96838C0 7.45204 0 4.93599 0 2.41994C0 0.984003 0.816975 0.165855 2.26142 0.164681C5.70152 0.162335 9.14191 0.163801 12.582 0.163801C14.3301 0.163801 16.0778 0.160574 17.8259 0.165268C18.7203 0.167615 19.4411 0.500565 19.8125 1.3548C19.9412 1.65108 20.0034 1.99899 20.0055 2.32372C20.0207 4.87322 20.0196 7.42271 20.0116 9.9722C20.0075 11.3424 19.163 12.1626 17.7869 12.1626C15.1928 12.1626 12.5987 12.1626 10.0046 12.1626V12.1629ZM10.4637 6.16512C10.4637 7.70168 10.4637 9.23824 10.4637 10.7748C10.4637 11.0625 10.6126 11.2066 10.9102 11.2072C12.7809 11.2075 14.6513 11.2081 16.522 11.2069C17.0564 11.2066 17.5912 11.2134 18.1248 11.1922C18.6355 11.172 18.9896 10.8135 19.0354 10.3025C19.0524 10.1145 19.0591 9.92467 19.0594 9.73576C19.0612 7.79848 19.0621 5.86092 19.0594 3.92365C19.0585 3.31143 19.0653 2.69862 19.0351 2.08758C19.0046 1.47096 18.6361 1.1474 18.0145 1.14681C15.6205 1.14534 13.2268 1.15121 10.8328 1.13977C10.5324 1.1383 10.4558 1.23482 10.4582 1.522C10.4702 3.06971 10.4637 4.61742 10.4637 6.16512ZM9.535 6.16805C9.535 4.59893 9.53353 3.02952 9.53676 1.4604C9.53705 1.26503 9.53353 1.11718 9.26511 1.11777C6.88342 1.1251 4.50172 1.11249 2.12032 1.12892C1.28369 1.13478 0.956022 1.4868 0.953675 2.32372C0.946928 4.88348 0.946928 7.44324 0.953675 10.003C0.955729 10.8525 1.30599 11.2019 2.15259 11.2043C4.50084 11.2107 6.8491 11.2019 9.19735 11.2128C9.48982 11.2142 9.54233 11.1042 9.54057 10.8423C9.53001 9.28429 9.53529 7.72603 9.53529 6.16805H9.535Z" fill="#132D46"/>
<path d="M15.8406 7.70425C16.1419 7.88554 16.4144 8.04864 16.6861 8.21379C16.9161 8.35343 17.0598 8.53882 16.9595 8.8222C16.8503 9.13021 16.5033 9.21617 16.1798 9.0208C15.875 8.83687 15.5804 8.63446 15.2651 8.47135C15.1642 8.41914 14.9923 8.42589 14.8861 8.47605C14.5253 8.64619 14.1835 8.85681 13.8259 9.03429C13.5164 9.18771 13.2392 9.12464 13.1193 8.90082C12.9755 8.63211 13.0755 8.39215 13.4105 8.20558C13.7089 8.03955 14.0075 7.87439 14.3601 7.67873C14.1433 7.4596 13.9527 7.29151 13.7934 7.09731C13.6922 6.9741 13.571 6.80778 13.5807 6.66902C13.591 6.52205 13.7162 6.33079 13.8462 6.26097C13.9559 6.20201 14.1815 6.23868 14.2903 6.32052C14.5719 6.53203 14.8177 6.79164 15.1149 7.06622C15.662 6.52851 16.0565 5.9201 16.3343 5.16532C16.1616 5.15153 16.0351 5.13276 15.9087 5.13246C14.8063 5.13012 13.7042 5.12953 12.6018 5.13246C12.3108 5.13334 12.0978 5.04417 12.0597 4.72031C12.021 4.39235 12.209 4.18524 12.578 4.17849C13.1234 4.16852 13.6696 4.16324 14.2146 4.18084C14.4833 4.18964 14.5807 4.09196 14.5543 3.83322C14.544 3.73466 14.5452 3.62935 14.5693 3.5343C14.6297 3.29757 14.8001 3.1814 15.0377 3.1905C15.3153 3.20106 15.4531 3.37149 15.4883 3.63727C15.5357 3.99593 15.7382 4.17527 16.0959 4.17527C16.5412 4.17527 16.9868 4.17351 17.4321 4.17585C17.7169 4.17732 17.9387 4.27413 17.9833 4.59065C18.0246 4.884 17.875 5.05003 17.5344 5.13481C17.4494 5.15593 17.3276 5.21167 17.3059 5.27855C17.0108 6.18148 16.5136 6.96266 15.8415 7.70366L15.8406 7.70425Z" fill="#132D46"/>
<path d="M7.50492 8.72537C7.41193 8.83156 7.31366 9.04688 7.17784 9.07387C7.00476 9.10848 6.79913 8.9973 6.61256 8.93394C6.57471 8.92103 6.54626 8.84359 6.53599 8.79167C6.42393 8.21788 6.05901 8.09291 5.52189 8.14425C5.01498 8.19294 4.49928 8.16156 3.98768 8.15129C3.79201 8.14718 3.67379 8.20761 3.61659 8.40122C3.57581 8.5388 3.51069 8.66993 3.45085 8.80135C3.32031 9.08766 3.06774 9.2006 2.80108 9.09616C2.56112 9.002 2.45376 8.7462 2.56875 8.45256C3.00965 7.32493 3.4617 6.2017 3.90965 5.0767C4.10296 4.59151 4.2951 4.10572 4.48959 3.62082C4.57995 3.39582 4.69641 3.1937 4.9789 3.18725C5.27841 3.18021 5.40337 3.38614 5.49901 3.62522C6.12619 5.19316 6.75454 6.76111 7.38054 8.32964C7.42132 8.43202 7.44713 8.54027 7.50463 8.72566L7.50492 8.72537ZM5.90031 7.17268C5.59845 6.4352 5.31566 5.74495 5.03317 5.0547C5.00119 5.06204 4.96922 5.06937 4.93695 5.0767C4.67 5.76138 4.40335 6.44635 4.12027 7.17268H5.90031Z" fill="#132D46"/>
</g>
<defs>
<clipPath id="clip0_259_957">
<rect width="20.0172" height="12" fill="white" transform="translate(0 0.162842)"/>
</clipPath>
</defs>
</svg>
