<svg width="14" height="17" viewBox="0 0 14 17" fill="none" xmlns="http://www.w3.org/2000/svg">
<g clip-path="url(#clip0_259_941)">
<path d="M6.98702 16.1516C4.99195 16.1516 2.99687 16.1519 1.00204 16.1516C0.366161 16.1516 -0.0350216 15.7635 0.00241219 15.135C0.112497 13.2894 0.848613 11.7689 2.38759 10.6892C3.27762 10.0649 4.27923 9.73615 5.36136 9.71669C6.56318 9.69527 7.76821 9.68123 8.96757 9.74501C11.2897 9.86889 13.3917 11.7426 13.8359 14.0245C13.9032 14.3698 13.9559 14.7193 13.9935 15.069C14.061 15.695 13.5966 16.1671 13.0006 16.1602C10.9964 16.1371 8.99145 16.1514 6.98702 16.1514V16.1516ZM6.99096 15.2C8.89023 15.2 10.7893 15.1988 12.6885 15.2017C12.8892 15.202 13.0397 15.1973 13.0245 14.9193C12.904 12.702 11.003 10.788 8.77128 10.6863C7.72412 10.6385 6.67351 10.6341 5.62512 10.6474C4.77695 10.6582 3.96178 10.8466 3.22738 11.298C1.94651 12.0856 1.19537 13.2192 0.987266 14.7146C0.924466 15.1665 0.935056 15.1995 1.37909 15.1998C3.24955 15.2 5.12025 15.1998 6.99071 15.1998L6.99096 15.2Z" fill="#132D46"/>
<path d="M6.99489 8.13265C4.75575 8.1329 3.02124 6.3841 3.02148 4.1265C3.02173 1.95016 4.81363 0.167133 7.00228 0.165163C9.12492 0.163193 10.8932 1.94228 10.9806 3.98957C11.0764 6.23264 9.18895 8.19619 6.99489 8.13265ZM10.0204 4.16763C10.0246 2.50872 8.68655 1.14558 7.04784 1.13893C5.34534 1.13204 3.98097 2.457 3.97383 4.12354C3.96693 5.78861 5.30519 7.14361 6.91805 7.19016C8.57819 7.23818 10.0684 5.79698 10.0204 4.16738V4.16763Z" fill="#132D46"/>
</g>
<defs>
<clipPath id="clip0_259_941">
<rect width="14" height="15.9953" fill="white" transform="translate(0 0.165161)"/>
</clipPath>
</defs>
</svg>
