<svg width="30" height="20" viewBox="0 0 30 20" fill="none" xmlns="http://www.w3.org/2000/svg">
<g clip-path="url(#clip0_31_76)">
<path d="M0.00240756 10.0149C0.00240756 7.83952 -0.00436667 5.6639 0.00481132 3.4885C0.0107115 2.10132 0.597666 1.01591 1.84784 0.395083C2.33209 0.154708 2.9221 0.0251232 3.46535 0.0214083C7.81593 -0.00787387 12.1672 -0.00153669 16.518 0.00785982C18.5398 0.0122303 19.9855 1.46782 19.9923 3.52281C20.0063 7.84936 20.0047 12.1759 19.9923 16.5022C19.9875 18.2034 19.0629 19.4123 17.4415 19.8784C17.1296 19.968 16.7918 20.001 16.4658 20.0017C12.1514 20.0095 7.83713 20.0102 3.52282 20.0056C1.44663 20.0032 0.0074336 18.5535 0.00328165 16.4681C-0.000870296 14.3172 0.00240756 12.1661 0.00240756 10.0151V10.0149ZM19.1783 9.96729C19.1783 7.82925 19.1831 5.69144 19.1768 3.5534C19.1719 1.89 18.1549 0.831475 16.4918 0.824701C12.1549 0.807656 7.81768 0.805471 3.48086 0.825793C1.82183 0.833442 0.803296 1.91054 0.802641 3.56608C0.801111 7.8664 0.800455 12.1667 0.803078 16.4671C0.80417 18.1208 1.87909 19.2067 3.53025 19.2086C7.84281 19.2139 12.1554 19.2176 16.4677 19.199C16.8829 19.1973 17.3265 19.1033 17.707 18.9375C18.774 18.4722 19.1728 17.5647 19.1761 16.4542C19.1827 14.2919 19.1781 12.1294 19.1781 9.96707L19.1783 9.96729Z" fill="black"/>
<path d="M21.6928 14.23C21.8678 14.3189 21.9863 14.3751 22.101 14.438C23.8247 15.3816 25.5434 16.3344 27.2758 17.2616C27.5424 17.4043 27.8809 17.5216 28.1696 17.4912C28.8457 17.4202 29.1927 16.9408 29.1947 16.2009C29.1988 14.539 29.196 12.8771 29.196 11.215C29.196 8.75883 29.1973 6.30263 29.1951 3.84642C29.1945 3.07503 28.8459 2.58816 28.162 2.52785C27.8709 2.50206 27.533 2.61351 27.2669 2.75664C25.5366 3.68777 23.8201 4.64491 22.0988 5.59242C21.9845 5.65536 21.8659 5.70999 21.6939 5.79631C21.6939 5.50764 21.6775 5.26661 21.7024 5.02994C21.7116 4.94385 21.8023 4.83786 21.8842 4.79219C23.6119 3.83047 25.3299 2.85017 27.0785 1.92822C28.4712 1.19398 29.9862 2.12271 29.9906 3.69258C30.0026 7.90834 30.0028 12.1243 29.9901 16.3403C29.9855 17.8763 28.4926 18.8131 27.1307 18.1036C25.3561 17.1792 23.6189 16.1825 21.8698 15.2096C21.7902 15.1653 21.71 15.0532 21.7007 14.9649C21.6766 14.7405 21.6926 14.5117 21.6926 14.23H21.6928Z" fill="black"/>
</g>
<defs>
<clipPath id="clip0_31_76">
<rect width="30" height="20.0084" fill="white"/>
</clipPath>
</defs>
</svg>
