<svg width="40" height="40" viewBox="0 0 40 40" fill="none" xmlns="http://www.w3.org/2000/svg">
<rect width="40" height="40" rx="20" fill="#132D46"/>
<g clip-path="url(#clip0_844_1969)">
<path d="M19.9937 28.8941C14.976 28.9192 10.9161 24.8307 11.0013 19.7922C11.0803 15.1231 14.7928 10.9932 20.0239 11C25.1949 11.0068 29.07 15.1621 28.9991 20.0945C28.9301 24.8941 25.0261 28.9139 19.994 28.8941H19.9937ZM19.9937 22.2137C20.9485 22.2137 21.9036 22.2066 22.8584 22.2187C23.1015 22.2218 23.1988 22.1358 23.2386 21.9028C23.4594 20.6046 23.4572 19.3084 23.2402 18.0099C23.2026 17.7856 23.1217 17.6826 22.8702 17.6838C20.9603 17.6931 19.0507 17.6931 17.1408 17.6838C16.8967 17.6826 16.8001 17.7673 16.7615 17.9984C16.5423 19.3063 16.5392 20.6117 16.7646 21.9192C16.8029 22.1407 16.8995 22.2208 17.1293 22.2181C18.0841 22.2069 19.0389 22.2134 19.994 22.2134L19.9937 22.2137ZM15.6994 17.7281C15.6261 17.7117 15.5804 17.6925 15.5347 17.6925C14.5509 17.6906 13.5672 17.694 12.5838 17.6872C12.4016 17.686 12.3578 17.7927 12.3233 17.9307C11.9903 19.2679 11.9853 20.6046 12.3146 21.944C12.3646 22.1478 12.462 22.2205 12.6752 22.2181C13.5719 22.2075 14.4692 22.2051 15.3658 22.219C15.6357 22.2233 15.7256 22.1553 15.6758 21.8762C15.497 20.8796 15.4703 19.8751 15.5689 18.8676C15.6059 18.4899 15.655 18.1135 15.6998 17.7277L15.6994 17.7281ZM24.2842 17.6888C24.3361 18.0346 24.3934 18.3158 24.4182 18.5994C24.514 19.6908 24.5258 20.7818 24.3278 21.8648C24.2802 22.1249 24.334 22.2249 24.6247 22.2196C25.5207 22.2029 26.4177 22.206 27.314 22.2187C27.5425 22.2218 27.638 22.1407 27.6899 21.9267C28.0133 20.5965 28.0055 19.2701 27.6824 17.9415C27.6352 17.7472 27.5404 17.6826 27.3414 17.6851C26.5318 17.6946 25.7219 17.6891 24.9123 17.6888C24.722 17.6888 24.532 17.6888 24.2842 17.6888ZM20.0024 23.3122C19.1639 23.3122 18.3251 23.3116 17.4865 23.3125C17.1685 23.3128 17.157 23.3382 17.2723 23.6422C17.8083 25.0571 18.6605 26.2598 19.7372 27.3168C19.9318 27.508 20.0605 27.5052 20.2617 27.3193C21.3838 26.2812 22.1999 25.0451 22.7371 23.6215C22.8416 23.345 22.8233 23.3131 22.5183 23.3125C21.6798 23.3112 20.8409 23.3122 20.0024 23.3122ZM19.9859 16.6089C20.8341 16.6089 21.6822 16.6061 22.5304 16.6107C22.7645 16.612 22.845 16.5498 22.7511 16.3042C22.208 14.8819 21.3632 13.664 20.2707 12.6064C20.0658 12.4081 19.9297 12.4158 19.7226 12.6092C18.6207 13.6368 17.8012 14.8469 17.2748 16.2547C17.152 16.5832 17.166 16.6079 17.5282 16.6086C18.3474 16.6101 19.1667 16.6092 19.9859 16.6089ZM27.0948 23.3527C27.0068 23.3363 26.9434 23.314 26.88 23.314C25.9933 23.3119 25.1066 23.3177 24.2202 23.3088C24.0187 23.3066 23.9587 23.4152 23.9037 23.5723C23.4155 24.9724 22.6756 26.2283 21.709 27.3539C21.6396 27.4347 21.5921 27.5334 21.5168 27.6506C23.9618 27.3246 26.3089 25.2956 27.0945 23.3524L27.0948 23.3527ZM18.4398 12.2927C16.9922 11.9865 13.1668 14.9332 12.9289 16.573C13.0402 16.5851 13.1516 16.6073 13.2625 16.6079C14.0625 16.611 14.8631 16.5996 15.6628 16.6151C15.9252 16.62 16.0219 16.5037 16.1204 16.2825C16.4394 15.5661 16.7463 14.8389 17.1393 14.1627C17.5176 13.5118 17.9977 12.9197 18.4395 12.2927H18.4398ZM21.5106 12.2853C21.5619 12.3605 21.588 12.4093 21.6241 12.4496C22.6597 13.599 23.4323 14.901 23.9174 16.3691C23.9783 16.5535 24.0971 16.6138 24.2876 16.6123C25.1358 16.6052 25.9843 16.6104 26.8324 16.6079C26.9235 16.6079 27.0143 16.5872 27.106 16.5761C26.8564 14.9493 23.1706 12.1142 21.5106 12.2853ZM18.483 27.6404C18.4084 27.5293 18.3568 27.4297 18.2846 27.3481C17.3075 26.2394 16.5697 24.9925 16.1039 23.5918C16.0358 23.3867 15.9398 23.3038 15.7131 23.3075C14.8746 23.3211 14.0361 23.3122 13.1973 23.314C13.1062 23.314 13.0151 23.331 12.9215 23.34C13.2162 25.0095 16.5737 27.6076 18.483 27.6404Z" fill="white"/>
</g>
<defs>
<clipPath id="clip0_844_1969">
<rect width="18" height="17.8941" fill="white" transform="translate(11 11)"/>
</clipPath>
</defs>
</svg>
